<mxfile host="app.diagrams.net" agent="Mozilla/5.0 (Windows NT 10.0; Win64; x64) AppleWebKit/537.36 (KHTML, like Gecko) Chrome/132.0.0.0 YaBrowser/25.2.0.0 Safari/537.36" version="26.2.14">
  <diagram name="Страница — 1" id="UBMVVx_RpnPPoS3Hej4C">
    <mxGraphModel dx="1421" dy="2002" grid="1" gridSize="10" guides="1" tooltips="1" connect="1" arrows="1" fold="1" page="1" pageScale="1" pageWidth="827" pageHeight="1169" math="0" shadow="0">
      <root>
        <mxCell id="0" />
        <mxCell id="1" parent="0" />
        <UserObject label="" plantUmlData="{&#xa;  &quot;data&quot;: &quot;@startuml AirportSystem\n\nclass Airport {\n  - airlines: List&lt;Airline&gt;\n  - scheduledFlights: List&lt;Flight*&gt;\n  - runways: int\n  + addAirline(airline: Airline): void\n  + processSlotRequest(): void\n  + displayFlightSchedule(): void\n  + ~Airport()\n}\n\nclass Airline {\n  - name: String\n  - icaoCode: String\n  - fleetSize: int\n  + getName(): String\n  + getIcaoCode(): String\n  + getFleetSize(): int\n}\n\nclass Flight {\n  - flightNumber: String\n  - airline: Airline\n  - departureTime: DateTime\n  - arrivalTime: DateTime\n  - aircraftType: String\n  - isScheduled: bool\n  + requestSlot(): void\n  + confirmSlot(): void\n  + getFlightNumber(): String\n}\n\nclass SlotRequest {\n  - requestDate: Date\n  - status: String\n  - priority: String\n  + approve(): void\n  + checkAvailability(): bool\n}\n\n&#39; Связи между классами\nAirport \&quot;1\&quot; *-- \&quot;0..*\&quot; Airline : Агрегация\nAirport \&quot;1\&quot; *-- \&quot;0..*\&quot; Flight : Композиция\nFlight \&quot;1\&quot; --&gt; \&quot;1\&quot; Airline : Ассоциация\nSlotRequest --|&gt; Flight : Наследование\nAirport ..&gt; SlotRequest : Зависимость\n\nnote top of Airport\n  Управляет всеми авиакомпаниями\n  и рейсами в аэропорту\nend note\n\nnote right of Flight\n  Содержит информацию\n  о конкретном рейсе\nend note\n\n@enduml&quot;,&#xa;  &quot;format&quot;: &quot;svg&quot;&#xa;}" id="MulLUZL0IZFoFFdMxcmS-1">
          <mxCell style="shape=image;noLabel=1;verticalAlign=top;aspect=fixed;imageAspect=0;image=data:image/svg+xml,PHN2ZyB4bWxucz0iaHR0cDovL3d3dy53My5vcmcvMjAwMC9zdmciIHhtbG5zOnhsaW5rPSJodHRwOi8vd3d3LnczLm9yZy8xOTk5L3hsaW5rIiBjb250ZW50U3R5bGVUeXBlPSJ0ZXh0L2NzcyIgZGF0YS1kaWFncmFtLXR5cGU9IkNMQVNTIiBoZWlnaHQ9IjkzM3B4IiBwcmVzZXJ2ZUFzcGVjdFJhdGlvPSJub25lIiBzdHlsZT0id2lkdGg6NTE0cHg7aGVpZ2h0OjkzM3B4O2JhY2tncm91bmQ6I0ZGRkZGRjsiIHZlcnNpb249IjEuMSIgdmlld0JveD0iMCAwIDUxNCA5MzMiIHdpZHRoPSI1MTRweCIgem9vbUFuZFBhbj0ibWFnbmlmeSI+PGRlZnMvPjxnPjwhLS1jbGFzcyBBaXJwb3J0LS0+PGcgY2xhc3M9ImVudGl0eSIgZGF0YS1lbnRpdHk9IkFpcnBvcnQiIGRhdGEtc291cmNlLWxpbmU9IjEiIGRhdGEtdWlkPSJlbnQwMDAyIiBpZD0iZW50aXR5X0FpcnBvcnQiPjxyZWN0IGZpbGw9IiNGMUYxRjEiIGhlaWdodD0iMTUyLjg5MDYiIHJ4PSIyLjUiIHJ5PSIyLjUiIHN0eWxlPSJzdHJva2U6IzE4MTgxODtzdHJva2Utd2lkdGg6MC41OyIgd2lkdGg9IjI2NCIgeD0iMTU0LjUiIHk9IjEwNSIvPjxlbGxpcHNlIGN4PSIyNTcuNzUiIGN5PSIxMjEiIGZpbGw9IiNBREQxQjIiIHJ4PSIxMSIgcnk9IjExIiBzdHlsZT0ic3Ryb2tlOiMxODE4MTg7c3Ryb2tlLXdpZHRoOjE7Ii8+PHBhdGggZD0iTTI1NS4zNzUsMTI1LjI1IEwyNTUuMzc1LDEyNyBMMjYwLjMxMjUsMTI3IEwyNjAuMzEyNSwxMjUuMjUgTDI1NS4zNzUsMTI1LjI1IFogTTI1Ni4wNjI1LDEyNS45Mzc1IFEyNTYuMDYyNSwxMjUuOTM3NSAyNTYuMDYyNSwxMTYuNzUgTDI1NC4zMTI1LDExNi43NSBRMjU0LjMxMjUsMTE2Ljc1IDI1NC4zMTI1LDEyNS45Mzc1IEwyNTYuMDYyNSwxMjUuOTM3NSBaIE0yNTkuNjI1LDEyNS45Mzc1IEwyNjEuMzc1LDEyNS45Mzc1IFEyNjEuMzc1LDEyNS45Mzc1IDI2MS4zNzUsMTIzLjEyNSBMMjU5LjYyNSwxMjMuMTI1IFEyNTkuNjI1LDEyMy4xMjUgMjU5LjYyNSwxMjUuOTM3NSBaIE0yNTkuNjI1LDExNi43NSBRMjU5LjYyNSwxMTYuNzUgMjU5LjYyNSwxMTkuNTYyNSBMMjYxLjM3NSwxMTkuNTYyNSBRMjYxLjM3NSwxMTkuNTYyNSAyNjEuMzc1LDExNi43NSBMMjU5LjYyNSwxMTYuNzUgWiBNMjU1LjM3NSwxMTcuNDM3NSBMMjYwLjMxMjUsMTE3LjQzNzUgTDI2MC4zMTI1LDExNS42ODc1IEwyNTUuMzc1LDExNS42ODc1IEwyNTUuMzc1LDExNy40Mzc1IFogIiBmaWxsPSIjMDAwMDAwIi8+PHRleHQgZmlsbD0iIzAwMDAwMCIgZm9udC1mYW1pbHk9InNhbnMtc2VyaWYiIGZvbnQtc2l6ZT0iMTQiIGxlbmd0aEFkanVzdD0ic3BhY2luZyIgdGV4dExlbmd0aD0iNDkiIHg9IjI3OC4yNSIgeT0iMTI2Ljc0MjIiPkFpcnBvcnQ8L3RleHQ+PGxpbmUgc3R5bGU9InN0cm9rZTojMTgxODE4O3N0cm9rZS13aWR0aDowLjU7IiB4MT0iMTU1LjUiIHgyPSI0MTcuNSIgeTE9IjEzNyIgeTI9IjEzNyIvPjxyZWN0IGZpbGw9Im5vbmUiIGhlaWdodD0iNiIgc3R5bGU9InN0cm9rZTojQzgyOTMwO3N0cm9rZS13aWR0aDoxOyIgd2lkdGg9IjYiIHg9IjE2Mi41IiB5PSIxNDYuOTkyMiIvPjx0ZXh0IGZpbGw9IiMwMDAwMDAiIGZvbnQtZmFtaWx5PSJzYW5zLXNlcmlmIiBmb250LXNpemU9IjE0IiBsZW5ndGhBZGp1c3Q9InNwYWNpbmciIHRleHRMZW5ndGg9IjE2MSIgeD0iMTc0LjUiIHk9IjE1NC4yMzQ0Ij5haXJsaW5lczogTGlzdCZsdDtBaXJsaW5lJmd0OzwvdGV4dD48cmVjdCBmaWxsPSJub25lIiBoZWlnaHQ9IjYiIHN0eWxlPSJzdHJva2U6I0M4MjkzMDtzdHJva2Utd2lkdGg6MTsiIHdpZHRoPSI2IiB4PSIxNjIuNSIgeT0iMTYxLjk3NjYiLz48dGV4dCBmaWxsPSIjMDAwMDAwIiBmb250LWZhbWlseT0ic2Fucy1zZXJpZiIgZm9udC1zaXplPSIxNCIgbGVuZ3RoQWRqdXN0PSJzcGFjaW5nIiB0ZXh0TGVuZ3RoPSIyMTciIHg9IjE3NC41IiB5PSIxNjkuMjE4OCI+c2NoZWR1bGVkRmxpZ2h0czogTGlzdCZsdDtGbGlnaHQqJmd0OzwvdGV4dD48cmVjdCBmaWxsPSJub25lIiBoZWlnaHQ9IjYiIHN0eWxlPSJzdHJva2U6I0M4MjkzMDtzdHJva2Utd2lkdGg6MTsiIHdpZHRoPSI2IiB4PSIxNjIuNSIgeT0iMTc2Ljk2MDkiLz48dGV4dCBmaWxsPSIjMDAwMDAwIiBmb250LWZhbWlseT0ic2Fucy1zZXJpZiIgZm9udC1zaXplPSIxNCIgbGVuZ3RoQWRqdXN0PSJzcGFjaW5nIiB0ZXh0TGVuZ3RoPSI4NCIgeD0iMTc0LjUiIHk9IjE4NC4yMDMxIj5ydW53YXlzOiBpbnQ8L3RleHQ+PGxpbmUgc3R5bGU9InN0cm9rZTojMTgxODE4O3N0cm9rZS13aWR0aDowLjU7IiB4MT0iMTU1LjUiIHgyPSI0MTcuNSIgeTE9IjE4OS45NTMxIiB5Mj0iMTg5Ljk1MzEiLz48ZWxsaXBzZSBjeD0iMTY1LjUiIGN5PSIyMDIuOTQ1MyIgZmlsbD0iIzg0QkU4NCIgcng9IjMiIHJ5PSIzIiBzdHlsZT0ic3Ryb2tlOiMwMzgwNDg7c3Ryb2tlLXdpZHRoOjE7Ii8+PHRleHQgZmlsbD0iIzAwMDAwMCIgZm9udC1mYW1pbHk9InNhbnMtc2VyaWYiIGZvbnQtc2l6ZT0iMTQiIGxlbmd0aEFkanVzdD0ic3BhY2luZyIgdGV4dExlbmd0aD0iMjM4IiB4PSIxNzQuNSIgeT0iMjA3LjE4NzUiPmFkZEFpcmxpbmUoYWlybGluZTogQWlybGluZSk6IHZvaWQ8L3RleHQ+PGVsbGlwc2UgY3g9IjE2NS41IiBjeT0iMjE3LjkyOTciIGZpbGw9IiM4NEJFODQiIHJ4PSIzIiByeT0iMyIgc3R5bGU9InN0cm9rZTojMDM4MDQ4O3N0cm9rZS13aWR0aDoxOyIvPjx0ZXh0IGZpbGw9IiMwMDAwMDAiIGZvbnQtZmFtaWx5PSJzYW5zLXNlcmlmIiBmb250LXNpemU9IjE0IiBsZW5ndGhBZGp1c3Q9InNwYWNpbmciIHRleHRMZW5ndGg9IjE4MiIgeD0iMTc0LjUiIHk9IjIyMi4xNzE5Ij5wcm9jZXNzU2xvdFJlcXVlc3QoKTogdm9pZDwvdGV4dD48ZWxsaXBzZSBjeD0iMTY1LjUiIGN5PSIyMzIuOTE0MSIgZmlsbD0iIzg0QkU4NCIgcng9IjMiIHJ5PSIzIiBzdHlsZT0ic3Ryb2tlOiMwMzgwNDg7c3Ryb2tlLXdpZHRoOjE7Ii8+PHRleHQgZmlsbD0iIzAwMDAwMCIgZm9udC1mYW1pbHk9InNhbnMtc2VyaWYiIGZvbnQtc2l6ZT0iMTQiIGxlbmd0aEFkanVzdD0ic3BhY2luZyIgdGV4dExlbmd0aD0iMjAzIiB4PSIxNzQuNSIgeT0iMjM3LjE1NjMiPmRpc3BsYXlGbGlnaHRTY2hlZHVsZSgpOiB2b2lkPC90ZXh0PjxlbGxpcHNlIGN4PSIxNjUuNSIgY3k9IjI0Ny44OTg0IiBmaWxsPSIjODRCRTg0IiByeD0iMyIgcnk9IjMiIHN0eWxlPSJzdHJva2U6IzAzODA0ODtzdHJva2Utd2lkdGg6MTsiLz48dGV4dCBmaWxsPSIjMDAwMDAwIiBmb250LWZhbWlseT0ic2Fucy1zZXJpZiIgZm9udC1zaXplPSIxNCIgbGVuZ3RoQWRqdXN0PSJzcGFjaW5nIiB0ZXh0TGVuZ3RoPSI3MCIgeD0iMTc0LjUiIHk9IjI1Mi4xNDA2Ij5+QWlycG9ydCgpPC90ZXh0PjwvZz48IS0tY2xhc3MgQWlybGluZS0tPjxnIGNsYXNzPSJlbnRpdHkiIGRhdGEtZW50aXR5PSJBaXJsaW5lIiBkYXRhLXNvdXJjZS1saW5lPSIxMSIgZGF0YS11aWQ9ImVudDAwMDMiIGlkPSJlbnRpdHlfQWlybGluZSI+PHJlY3QgZmlsbD0iI0YxRjFGMSIgaGVpZ2h0PSIxMzcuOTA2MyIgcng9IjIuNSIgcnk9IjIuNSIgc3R5bGU9InN0cm9rZTojMTgxODE4O3N0cm9rZS13aWR0aDowLjU7IiB3aWR0aD0iMTczIiB4PSIxODgiIHk9Ijc4OSIvPjxlbGxpcHNlIGN4PSIyNDUuNzUiIGN5PSI4MDUiIGZpbGw9IiNBREQxQjIiIHJ4PSIxMSIgcnk9IjExIiBzdHlsZT0ic3Ryb2tlOiMxODE4MTg7c3Ryb2tlLXdpZHRoOjE7Ii8+PHBhdGggZD0iTTI0My4zNzUsODA5LjI1IEwyNDMuMzc1LDgxMSBMMjQ4LjMxMjUsODExIEwyNDguMzEyNSw4MDkuMjUgTDI0My4zNzUsODA5LjI1IFogTTI0NC4wNjI1LDgwOS45Mzc1IFEyNDQuMDYyNSw4MDkuOTM3NSAyNDQuMDYyNSw4MDAuNzUgTDI0Mi4zMTI1LDgwMC43NSBRMjQyLjMxMjUsODAwLjc1IDI0Mi4zMTI1LDgwOS45Mzc1IEwyNDQuMDYyNSw4MDkuOTM3NSBaIE0yNDcuNjI1LDgwOS45Mzc1IEwyNDkuMzc1LDgwOS45Mzc1IFEyNDkuMzc1LDgwOS45Mzc1IDI0OS4zNzUsODA3LjEyNSBMMjQ3LjYyNSw4MDcuMTI1IFEyNDcuNjI1LDgwNy4xMjUgMjQ3LjYyNSw4MDkuOTM3NSBaIE0yNDcuNjI1LDgwMC43NSBRMjQ3LjYyNSw4MDAuNzUgMjQ3LjYyNSw4MDMuNTYyNSBMMjQ5LjM3NSw4MDMuNTYyNSBRMjQ5LjM3NSw4MDMuNTYyNSAyNDkuMzc1LDgwMC43NSBMMjQ3LjYyNSw4MDAuNzUgWiBNMjQzLjM3NSw4MDEuNDM3NSBMMjQ4LjMxMjUsODAxLjQzNzUgTDI0OC4zMTI1LDc5OS42ODc1IEwyNDMuMzc1LDc5OS42ODc1IEwyNDMuMzc1LDgwMS40Mzc1IFogIiBmaWxsPSIjMDAwMDAwIi8+PHRleHQgZmlsbD0iIzAwMDAwMCIgZm9udC1mYW1pbHk9InNhbnMtc2VyaWYiIGZvbnQtc2l6ZT0iMTQiIGxlbmd0aEFkanVzdD0ic3BhY2luZyIgdGV4dExlbmd0aD0iNDkiIHg9IjI2Ni4yNSIgeT0iODEwLjc0MjIiPkFpcmxpbmU8L3RleHQ+PGxpbmUgc3R5bGU9InN0cm9rZTojMTgxODE4O3N0cm9rZS13aWR0aDowLjU7IiB4MT0iMTg5IiB4Mj0iMzYwIiB5MT0iODIxIiB5Mj0iODIxIi8+PHJlY3QgZmlsbD0ibm9uZSIgaGVpZ2h0PSI2IiBzdHlsZT0ic3Ryb2tlOiNDODI5MzA7c3Ryb2tlLXdpZHRoOjE7IiB3aWR0aD0iNiIgeD0iMTk2IiB5PSI4MzAuOTkyMiIvPjx0ZXh0IGZpbGw9IiMwMDAwMDAiIGZvbnQtZmFtaWx5PSJzYW5zLXNlcmlmIiBmb250LXNpemU9IjE0IiBsZW5ndGhBZGp1c3Q9InNwYWNpbmciIHRleHRMZW5ndGg9Ijg0IiB4PSIyMDgiIHk9IjgzOC4yMzQ0Ij5uYW1lOiBTdHJpbmc8L3RleHQ+PHJlY3QgZmlsbD0ibm9uZSIgaGVpZ2h0PSI2IiBzdHlsZT0ic3Ryb2tlOiNDODI5MzA7c3Ryb2tlLXdpZHRoOjE7IiB3aWR0aD0iNiIgeD0iMTk2IiB5PSI4NDUuOTc2NiIvPjx0ZXh0IGZpbGw9IiMwMDAwMDAiIGZvbnQtZmFtaWx5PSJzYW5zLXNlcmlmIiBmb250LXNpemU9IjE0IiBsZW5ndGhBZGp1c3Q9InNwYWNpbmciIHRleHRMZW5ndGg9IjExMiIgeD0iMjA4IiB5PSI4NTMuMjE4OCI+aWNhb0NvZGU6IFN0cmluZzwvdGV4dD48cmVjdCBmaWxsPSJub25lIiBoZWlnaHQ9IjYiIHN0eWxlPSJzdHJva2U6I0M4MjkzMDtzdHJva2Utd2lkdGg6MTsiIHdpZHRoPSI2IiB4PSIxOTYiIHk9Ijg2MC45NjA5Ii8+PHRleHQgZmlsbD0iIzAwMDAwMCIgZm9udC1mYW1pbHk9InNhbnMtc2VyaWYiIGZvbnQtc2l6ZT0iMTQiIGxlbmd0aEFkanVzdD0ic3BhY2luZyIgdGV4dExlbmd0aD0iOTgiIHg9IjIwOCIgeT0iODY4LjIwMzEiPmZsZWV0U2l6ZTogaW50PC90ZXh0PjxsaW5lIHN0eWxlPSJzdHJva2U6IzE4MTgxODtzdHJva2Utd2lkdGg6MC41OyIgeDE9IjE4OSIgeDI9IjM2MCIgeTE9Ijg3My45NTMxIiB5Mj0iODczLjk1MzEiLz48ZWxsaXBzZSBjeD0iMTk5IiBjeT0iODg2Ljk0NTMiIGZpbGw9IiM4NEJFODQiIHJ4PSIzIiByeT0iMyIgc3R5bGU9InN0cm9rZTojMDM4MDQ4O3N0cm9rZS13aWR0aDoxOyIvPjx0ZXh0IGZpbGw9IiMwMDAwMDAiIGZvbnQtZmFtaWx5PSJzYW5zLXNlcmlmIiBmb250LXNpemU9IjE0IiBsZW5ndGhBZGp1c3Q9InNwYWNpbmciIHRleHRMZW5ndGg9IjExOSIgeD0iMjA4IiB5PSI4OTEuMTg3NSI+Z2V0TmFtZSgpOiBTdHJpbmc8L3RleHQ+PGVsbGlwc2UgY3g9IjE5OSIgY3k9IjkwMS45Mjk3IiBmaWxsPSIjODRCRTg0IiByeD0iMyIgcnk9IjMiIHN0eWxlPSJzdHJva2U6IzAzODA0ODtzdHJva2Utd2lkdGg6MTsiLz48dGV4dCBmaWxsPSIjMDAwMDAwIiBmb250LWZhbWlseT0ic2Fucy1zZXJpZiIgZm9udC1zaXplPSIxNCIgbGVuZ3RoQWRqdXN0PSJzcGFjaW5nIiB0ZXh0TGVuZ3RoPSIxNDciIHg9IjIwOCIgeT0iOTA2LjE3MTkiPmdldEljYW9Db2RlKCk6IFN0cmluZzwvdGV4dD48ZWxsaXBzZSBjeD0iMTk5IiBjeT0iOTE2LjkxNDEiIGZpbGw9IiM4NEJFODQiIHJ4PSIzIiByeT0iMyIgc3R5bGU9InN0cm9rZTojMDM4MDQ4O3N0cm9rZS13aWR0aDoxOyIvPjx0ZXh0IGZpbGw9IiMwMDAwMDAiIGZvbnQtZmFtaWx5PSJzYW5zLXNlcmlmIiBmb250LXNpemU9IjE0IiBsZW5ndGhBZGp1c3Q9InNwYWNpbmciIHRleHRMZW5ndGg9IjEzMyIgeD0iMjA4IiB5PSI5MjEuMTU2MyI+Z2V0RmxlZXRTaXplKCk6IGludDwvdGV4dD48L2c+PCEtLWNsYXNzIEZsaWdodC0tPjxnIGNsYXNzPSJlbnRpdHkiIGRhdGEtZW50aXR5PSJGbGlnaHQiIGRhdGEtc291cmNlLWxpbmU9IjIwIiBkYXRhLXVpZD0iZW50MDAwNCIgaWQ9ImVudGl0eV9GbGlnaHQiPjxyZWN0IGZpbGw9IiNGMUYxRjEiIGhlaWdodD0iMTgyLjg1OTQiIHJ4PSIyLjUiIHJ5PSIyLjUiIHN0eWxlPSJzdHJva2U6IzE4MTgxODtzdHJva2Utd2lkdGg6MC41OyIgd2lkdGg9IjIwMSIgeD0iNyIgeT0iNTMxIi8+PGVsbGlwc2UgY3g9IjgyLjI1IiBjeT0iNTQ3IiBmaWxsPSIjQUREMUIyIiByeD0iMTEiIHJ5PSIxMSIgc3R5bGU9InN0cm9rZTojMTgxODE4O3N0cm9rZS13aWR0aDoxOyIvPjxwYXRoIGQ9Ik03OS44NzUsNTUxLjI1IEw3OS44NzUsNTUzIEw4NC44MTI1LDU1MyBMODQuODEyNSw1NTEuMjUgTDc5Ljg3NSw1NTEuMjUgWiBNODAuNTYyNSw1NTEuOTM3NSBRODAuNTYyNSw1NTEuOTM3NSA4MC41NjI1LDU0Mi43NSBMNzguODEyNSw1NDIuNzUgUTc4LjgxMjUsNTQyLjc1IDc4LjgxMjUsNTUxLjkzNzUgTDgwLjU2MjUsNTUxLjkzNzUgWiBNODQuMTI1LDU1MS45Mzc1IEw4NS44NzUsNTUxLjkzNzUgUTg1Ljg3NSw1NTEuOTM3NSA4NS44NzUsNTQ5LjEyNSBMODQuMTI1LDU0OS4xMjUgUTg0LjEyNSw1NDkuMTI1IDg0LjEyNSw1NTEuOTM3NSBaIE04NC4xMjUsNTQyLjc1IFE4NC4xMjUsNTQyLjc1IDg0LjEyNSw1NDUuNTYyNSBMODUuODc1LDU0NS41NjI1IFE4NS44NzUsNTQ1LjU2MjUgODUuODc1LDU0Mi43NSBMODQuMTI1LDU0Mi43NSBaIE03OS44NzUsNTQzLjQzNzUgTDg0LjgxMjUsNTQzLjQzNzUgTDg0LjgxMjUsNTQxLjY4NzUgTDc5Ljg3NSw1NDEuNjg3NSBMNzkuODc1LDU0My40Mzc1IFogIiBmaWxsPSIjMDAwMDAwIi8+PHRleHQgZmlsbD0iIzAwMDAwMCIgZm9udC1mYW1pbHk9InNhbnMtc2VyaWYiIGZvbnQtc2l6ZT0iMTQiIGxlbmd0aEFkanVzdD0ic3BhY2luZyIgdGV4dExlbmd0aD0iNDIiIHg9IjEwMi43NSIgeT0iNTUyLjc0MjIiPkZsaWdodDwvdGV4dD48bGluZSBzdHlsZT0ic3Ryb2tlOiMxODE4MTg7c3Ryb2tlLXdpZHRoOjAuNTsiIHgxPSI4IiB4Mj0iMjA3IiB5MT0iNTYzIiB5Mj0iNTYzIi8+PHJlY3QgZmlsbD0ibm9uZSIgaGVpZ2h0PSI2IiBzdHlsZT0ic3Ryb2tlOiNDODI5MzA7c3Ryb2tlLXdpZHRoOjE7IiB3aWR0aD0iNiIgeD0iMTUiIHk9IjU3Mi45OTIyIi8+PHRleHQgZmlsbD0iIzAwMDAwMCIgZm9udC1mYW1pbHk9InNhbnMtc2VyaWYiIGZvbnQtc2l6ZT0iMTQiIGxlbmd0aEFkanVzdD0ic3BhY2luZyIgdGV4dExlbmd0aD0iMTQwIiB4PSIyNyIgeT0iNTgwLjIzNDQiPmZsaWdodE51bWJlcjogU3RyaW5nPC90ZXh0PjxyZWN0IGZpbGw9Im5vbmUiIGhlaWdodD0iNiIgc3R5bGU9InN0cm9rZTojQzgyOTMwO3N0cm9rZS13aWR0aDoxOyIgd2lkdGg9IjYiIHg9IjE1IiB5PSI1ODcuOTc2NiIvPjx0ZXh0IGZpbGw9IiMwMDAwMDAiIGZvbnQtZmFtaWx5PSJzYW5zLXNlcmlmIiBmb250LXNpemU9IjE0IiBsZW5ndGhBZGp1c3Q9InNwYWNpbmciIHRleHRMZW5ndGg9IjExMiIgeD0iMjciIHk9IjU5NS4yMTg4Ij5haXJsaW5lOiBBaXJsaW5lPC90ZXh0PjxyZWN0IGZpbGw9Im5vbmUiIGhlaWdodD0iNiIgc3R5bGU9InN0cm9rZTojQzgyOTMwO3N0cm9rZS13aWR0aDoxOyIgd2lkdGg9IjYiIHg9IjE1IiB5PSI2MDIuOTYwOSIvPjx0ZXh0IGZpbGw9IiMwMDAwMDAiIGZvbnQtZmFtaWx5PSJzYW5zLXNlcmlmIiBmb250LXNpemU9IjE0IiBsZW5ndGhBZGp1c3Q9InNwYWNpbmciIHRleHRMZW5ndGg9IjE2MSIgeD0iMjciIHk9IjYxMC4yMDMxIj5kZXBhcnR1cmVUaW1lOiBEYXRlVGltZTwvdGV4dD48cmVjdCBmaWxsPSJub25lIiBoZWlnaHQ9IjYiIHN0eWxlPSJzdHJva2U6I0M4MjkzMDtzdHJva2Utd2lkdGg6MTsiIHdpZHRoPSI2IiB4PSIxNSIgeT0iNjE3Ljk0NTMiLz48dGV4dCBmaWxsPSIjMDAwMDAwIiBmb250LWZhbWlseT0ic2Fucy1zZXJpZiIgZm9udC1zaXplPSIxNCIgbGVuZ3RoQWRqdXN0PSJzcGFjaW5nIiB0ZXh0TGVuZ3RoPSIxNDciIHg9IjI3IiB5PSI2MjUuMTg3NSI+YXJyaXZhbFRpbWU6IERhdGVUaW1lPC90ZXh0PjxyZWN0IGZpbGw9Im5vbmUiIGhlaWdodD0iNiIgc3R5bGU9InN0cm9rZTojQzgyOTMwO3N0cm9rZS13aWR0aDoxOyIgd2lkdGg9IjYiIHg9IjE1IiB5PSI2MzIuOTI5NyIvPjx0ZXh0IGZpbGw9IiMwMDAwMDAiIGZvbnQtZmFtaWx5PSJzYW5zLXNlcmlmIiBmb250LXNpemU9IjE0IiBsZW5ndGhBZGp1c3Q9InNwYWNpbmciIHRleHRMZW5ndGg9IjE0MCIgeD0iMjciIHk9IjY0MC4xNzE5Ij5haXJjcmFmdFR5cGU6IFN0cmluZzwvdGV4dD48cmVjdCBmaWxsPSJub25lIiBoZWlnaHQ9IjYiIHN0eWxlPSJzdHJva2U6I0M4MjkzMDtzdHJva2Utd2lkdGg6MTsiIHdpZHRoPSI2IiB4PSIxNSIgeT0iNjQ3LjkxNDEiLz48dGV4dCBmaWxsPSIjMDAwMDAwIiBmb250LWZhbWlseT0ic2Fucy1zZXJpZiIgZm9udC1zaXplPSIxNCIgbGVuZ3RoQWRqdXN0PSJzcGFjaW5nIiB0ZXh0TGVuZ3RoPSIxMTkiIHg9IjI3IiB5PSI2NTUuMTU2MyI+aXNTY2hlZHVsZWQ6IGJvb2w8L3RleHQ+PGxpbmUgc3R5bGU9InN0cm9rZTojMTgxODE4O3N0cm9rZS13aWR0aDowLjU7IiB4MT0iOCIgeDI9IjIwNyIgeTE9IjY2MC45MDYzIiB5Mj0iNjYwLjkwNjMiLz48ZWxsaXBzZSBjeD0iMTgiIGN5PSI2NzMuODk4NCIgZmlsbD0iIzg0QkU4NCIgcng9IjMiIHJ5PSIzIiBzdHlsZT0ic3Ryb2tlOiMwMzgwNDg7c3Ryb2tlLXdpZHRoOjE7Ii8+PHRleHQgZmlsbD0iIzAwMDAwMCIgZm9udC1mYW1pbHk9InNhbnMtc2VyaWYiIGZvbnQtc2l6ZT0iMTQiIGxlbmd0aEFkanVzdD0ic3BhY2luZyIgdGV4dExlbmd0aD0iMTMzIiB4PSIyNyIgeT0iNjc4LjE0MDYiPnJlcXVlc3RTbG90KCk6IHZvaWQ8L3RleHQ+PGVsbGlwc2UgY3g9IjE4IiBjeT0iNjg4Ljg4MjgiIGZpbGw9IiM4NEJFODQiIHJ4PSIzIiByeT0iMyIgc3R5bGU9InN0cm9rZTojMDM4MDQ4O3N0cm9rZS13aWR0aDoxOyIvPjx0ZXh0IGZpbGw9IiMwMDAwMDAiIGZvbnQtZmFtaWx5PSJzYW5zLXNlcmlmIiBmb250LXNpemU9IjE0IiBsZW5ndGhBZGp1c3Q9InNwYWNpbmciIHRleHRMZW5ndGg9IjEzMyIgeD0iMjciIHk9IjY5My4xMjUiPmNvbmZpcm1TbG90KCk6IHZvaWQ8L3RleHQ+PGVsbGlwc2UgY3g9IjE4IiBjeT0iNzAzLjg2NzIiIGZpbGw9IiM4NEJFODQiIHJ4PSIzIiByeT0iMyIgc3R5bGU9InN0cm9rZTojMDM4MDQ4O3N0cm9rZS13aWR0aDoxOyIvPjx0ZXh0IGZpbGw9IiMwMDAwMDAiIGZvbnQtZmFtaWx5PSJzYW5zLXNlcmlmIiBmb250LXNpemU9IjE0IiBsZW5ndGhBZGp1c3Q9InNwYWNpbmciIHRleHRMZW5ndGg9IjE3NSIgeD0iMjciIHk9IjcwOC4xMDk0Ij5nZXRGbGlnaHROdW1iZXIoKTogU3RyaW5nPC90ZXh0PjwvZz48IS0tY2xhc3MgU2xvdFJlcXVlc3QtLT48ZyBjbGFzcz0iZW50aXR5IiBkYXRhLWVudGl0eT0iU2xvdFJlcXVlc3QiIGRhdGEtc291cmNlLWxpbmU9IjMyIiBkYXRhLXVpZD0iZW50MDAwNSIgaWQ9ImVudGl0eV9TbG90UmVxdWVzdCI+PHJlY3QgZmlsbD0iI0YxRjFGMSIgaGVpZ2h0PSIxMjIuOTIxOSIgcng9IjIuNSIgcnk9IjIuNSIgc3R5bGU9InN0cm9rZTojMTgxODE4O3N0cm9rZS13aWR0aDowLjU7IiB3aWR0aD0iMjAxIiB4PSIxODYiIHk9IjMzMyIvPjxlbGxpcHNlIGN4PSIyNDMuNzUiIGN5PSIzNDkiIGZpbGw9IiNBREQxQjIiIHJ4PSIxMSIgcnk9IjExIiBzdHlsZT0ic3Ryb2tlOiMxODE4MTg7c3Ryb2tlLXdpZHRoOjE7Ii8+PHBhdGggZD0iTTI0MS4zNzUsMzUzLjI1IEwyNDEuMzc1LDM1NSBMMjQ2LjMxMjUsMzU1IEwyNDYuMzEyNSwzNTMuMjUgTDI0MS4zNzUsMzUzLjI1IFogTTI0Mi4wNjI1LDM1My45Mzc1IFEyNDIuMDYyNSwzNTMuOTM3NSAyNDIuMDYyNSwzNDQuNzUgTDI0MC4zMTI1LDM0NC43NSBRMjQwLjMxMjUsMzQ0Ljc1IDI0MC4zMTI1LDM1My45Mzc1IEwyNDIuMDYyNSwzNTMuOTM3NSBaIE0yNDUuNjI1LDM1My45Mzc1IEwyNDcuMzc1LDM1My45Mzc1IFEyNDcuMzc1LDM1My45Mzc1IDI0Ny4zNzUsMzUxLjEyNSBMMjQ1LjYyNSwzNTEuMTI1IFEyNDUuNjI1LDM1MS4xMjUgMjQ1LjYyNSwzNTMuOTM3NSBaIE0yNDUuNjI1LDM0NC43NSBRMjQ1LjYyNSwzNDQuNzUgMjQ1LjYyNSwzNDcuNTYyNSBMMjQ3LjM3NSwzNDcuNTYyNSBRMjQ3LjM3NSwzNDcuNTYyNSAyNDcuMzc1LDM0NC43NSBMMjQ1LjYyNSwzNDQuNzUgWiBNMjQxLjM3NSwzNDUuNDM3NSBMMjQ2LjMxMjUsMzQ1LjQzNzUgTDI0Ni4zMTI1LDM0My42ODc1IEwyNDEuMzc1LDM0My42ODc1IEwyNDEuMzc1LDM0NS40Mzc1IFogIiBmaWxsPSIjMDAwMDAwIi8+PHRleHQgZmlsbD0iIzAwMDAwMCIgZm9udC1mYW1pbHk9InNhbnMtc2VyaWYiIGZvbnQtc2l6ZT0iMTQiIGxlbmd0aEFkanVzdD0ic3BhY2luZyIgdGV4dExlbmd0aD0iNzciIHg9IjI2NC4yNSIgeT0iMzU0Ljc0MjIiPlNsb3RSZXF1ZXN0PC90ZXh0PjxsaW5lIHN0eWxlPSJzdHJva2U6IzE4MTgxODtzdHJva2Utd2lkdGg6MC41OyIgeDE9IjE4NyIgeDI9IjM4NiIgeTE9IjM2NSIgeTI9IjM2NSIvPjxyZWN0IGZpbGw9Im5vbmUiIGhlaWdodD0iNiIgc3R5bGU9InN0cm9rZTojQzgyOTMwO3N0cm9rZS13aWR0aDoxOyIgd2lkdGg9IjYiIHg9IjE5NCIgeT0iMzc0Ljk5MjIiLz48dGV4dCBmaWxsPSIjMDAwMDAwIiBmb250LWZhbWlseT0ic2Fucy1zZXJpZiIgZm9udC1zaXplPSIxNCIgbGVuZ3RoQWRqdXN0PSJzcGFjaW5nIiB0ZXh0TGVuZ3RoPSIxMTkiIHg9IjIwNiIgeT0iMzgyLjIzNDQiPnJlcXVlc3REYXRlOiBEYXRlPC90ZXh0PjxyZWN0IGZpbGw9Im5vbmUiIGhlaWdodD0iNiIgc3R5bGU9InN0cm9rZTojQzgyOTMwO3N0cm9rZS13aWR0aDoxOyIgd2lkdGg9IjYiIHg9IjE5NCIgeT0iMzg5Ljk3NjYiLz48dGV4dCBmaWxsPSIjMDAwMDAwIiBmb250LWZhbWlseT0ic2Fucy1zZXJpZiIgZm9udC1zaXplPSIxNCIgbGVuZ3RoQWRqdXN0PSJzcGFjaW5nIiB0ZXh0TGVuZ3RoPSI5OCIgeD0iMjA2IiB5PSIzOTcuMjE4OCI+c3RhdHVzOiBTdHJpbmc8L3RleHQ+PHJlY3QgZmlsbD0ibm9uZSIgaGVpZ2h0PSI2IiBzdHlsZT0ic3Ryb2tlOiNDODI5MzA7c3Ryb2tlLXdpZHRoOjE7IiB3aWR0aD0iNiIgeD0iMTk0IiB5PSI0MDQuOTYwOSIvPjx0ZXh0IGZpbGw9IiMwMDAwMDAiIGZvbnQtZmFtaWx5PSJzYW5zLXNlcmlmIiBmb250LXNpemU9IjE0IiBsZW5ndGhBZGp1c3Q9InNwYWNpbmciIHRleHRMZW5ndGg9IjExMiIgeD0iMjA2IiB5PSI0MTIuMjAzMSI+cHJpb3JpdHk6IFN0cmluZzwvdGV4dD48bGluZSBzdHlsZT0ic3Ryb2tlOiMxODE4MTg7c3Ryb2tlLXdpZHRoOjAuNTsiIHgxPSIxODciIHgyPSIzODYiIHkxPSI0MTcuOTUzMSIgeTI9IjQxNy45NTMxIi8+PGVsbGlwc2UgY3g9IjE5NyIgY3k9IjQzMC45NDUzIiBmaWxsPSIjODRCRTg0IiByeD0iMyIgcnk9IjMiIHN0eWxlPSJzdHJva2U6IzAzODA0ODtzdHJva2Utd2lkdGg6MTsiLz48dGV4dCBmaWxsPSIjMDAwMDAwIiBmb250LWZhbWlseT0ic2Fucy1zZXJpZiIgZm9udC1zaXplPSIxNCIgbGVuZ3RoQWRqdXN0PSJzcGFjaW5nIiB0ZXh0TGVuZ3RoPSIxMDUiIHg9IjIwNiIgeT0iNDM1LjE4NzUiPmFwcHJvdmUoKTogdm9pZDwvdGV4dD48ZWxsaXBzZSBjeD0iMTk3IiBjeT0iNDQ1LjkyOTciIGZpbGw9IiM4NEJFODQiIHJ4PSIzIiByeT0iMyIgc3R5bGU9InN0cm9rZTojMDM4MDQ4O3N0cm9rZS13aWR0aDoxOyIvPjx0ZXh0IGZpbGw9IiMwMDAwMDAiIGZvbnQtZmFtaWx5PSJzYW5zLXNlcmlmIiBmb250LXNpemU9IjE0IiBsZW5ndGhBZGp1c3Q9InNwYWNpbmciIHRleHRMZW5ndGg9IjE3NSIgeD0iMjA2IiB5PSI0NTAuMTcxOSI+Y2hlY2tBdmFpbGFiaWxpdHkoKTogYm9vbDwvdGV4dD48L2c+PGcgY2xhc3M9ImVudGl0eSIgZGF0YS1lbnRpdHk9IkdNTjExIiBkYXRhLXNvdXJjZS1saW5lPSI0OCIgZGF0YS11aWQ9ImVudDAwMTIiIGlkPSJlbnRpdHlfR01OMTEiPjxwYXRoIGQ9Ik0xNzguNSw2IEwxNzguNSw0My44MjgxIEEwLDAgMCAwIDAgMTc4LjUsNDMuODI4MSBMMjgyLjUsNDMuODI4MSBMMjg2LjUsMTA0Ljc2IEwyOTAuNSw0My44MjgxIEwzOTQuNSw0My44MjgxIEEwLDAgMCAwIDAgMzk0LjUsNDMuODI4MSBMMzk0LjUsMTYgTDM4NC41LDYgTDE3OC41LDYgQTAsMCAwIDAgMCAxNzguNSw2IiBmaWxsPSIjRkVGRkREIiBzdHlsZT0ic3Ryb2tlOiMxODE4MTg7c3Ryb2tlLXdpZHRoOjAuNTsiLz48cGF0aCBkPSJNMzg0LjUsNiBMMzg0LjUsMTYgTDM5NC41LDE2IEwzODQuNSw2IiBmaWxsPSIjRkVGRkREIiBzdHlsZT0ic3Ryb2tlOiMxODE4MTg7c3Ryb2tlLXdpZHRoOjAuNTsiLz48dGV4dCBmaWxsPSIjMDAwMDAwIiBmb250LWZhbWlseT0ic2Fucy1zZXJpZiIgZm9udC1zaXplPSIxMyIgbGVuZ3RoQWRqdXN0PSJzcGFjaW5nIiB0ZXh0TGVuZ3RoPSIxOTUiIHg9IjE4NC41IiB5PSIyMy4yODkxIj4mIzEwNTk7JiMxMDg3OyYjMTA4ODsmIzEwNzI7JiMxMDc0OyYjMTA4MzsmIzExMDM7JiMxMDc3OyYjMTA5MDsgJiMxMDc0OyYjMTA4OTsmIzEwNzc7JiMxMDg0OyYjMTA4MDsgJiMxMDcyOyYjMTA3NDsmIzEwODA7JiMxMDcyOyYjMTA4MjsmIzEwODY7JiMxMDg0OyYjMTA4NzsmIzEwNzI7JiMxMDg1OyYjMTA4MDsmIzExMDM7JiMxMDg0OyYjMTA4MDs8L3RleHQ+PHRleHQgZmlsbD0iIzAwMDAwMCIgZm9udC1mYW1pbHk9InNhbnMtc2VyaWYiIGZvbnQtc2l6ZT0iMTMiIGxlbmd0aEFkanVzdD0ic3BhY2luZyIgdGV4dExlbmd0aD0iMTM2LjUiIHg9IjE4NC41IiB5PSIzNy4yMDMxIj4mIzEwODA7ICYjMTA4ODsmIzEwNzc7JiMxMDgxOyYjMTA4OTsmIzEwNzI7JiMxMDg0OyYjMTA4MDsgJiMxMDc0OyAmIzEwNzI7JiMxMTAxOyYjMTA4ODsmIzEwODY7JiMxMDg3OyYjMTA4NjsmIzEwODg7JiMxMDkwOyYjMTA5MTs8L3RleHQ+PC9nPjxnIGNsYXNzPSJlbnRpdHkiIGRhdGEtZW50aXR5PSJHTU4xNCIgZGF0YS1zb3VyY2UtbGluZT0iNTMiIGRhdGEtdWlkPSJlbnQwMDE1IiBpZD0iZW50aXR5X0dNTjE0Ij48cGF0aCBkPSJNMjQzLjUsNjAzLjUgTDI0My41LDYxOC41IEwyMDguMjUsNjIyLjUgTDI0My41LDYyNi41IEwyNDMuNSw2NDEuMzI4MSBBMCwwIDAgMCAwIDI0My41LDY0MS4zMjgxIEwzODgsNjQxLjMyODEgQTAsMCAwIDAgMCAzODgsNjQxLjMyODEgTDM4OCw2MTMuNSBMMzc4LDYwMy41IEwyNDMuNSw2MDMuNSBBMCwwIDAgMCAwIDI0My41LDYwMy41IiBmaWxsPSIjRkVGRkREIiBzdHlsZT0ic3Ryb2tlOiMxODE4MTg7c3Ryb2tlLXdpZHRoOjAuNTsiLz48cGF0aCBkPSJNMzc4LDYwMy41IEwzNzgsNjEzLjUgTDM4OCw2MTMuNSBMMzc4LDYwMy41IiBmaWxsPSIjRkVGRkREIiBzdHlsZT0ic3Ryb2tlOiMxODE4MTg7c3Ryb2tlLXdpZHRoOjAuNTsiLz48dGV4dCBmaWxsPSIjMDAwMDAwIiBmb250LWZhbWlseT0ic2Fucy1zZXJpZiIgZm9udC1zaXplPSIxMyIgbGVuZ3RoQWRqdXN0PSJzcGFjaW5nIiB0ZXh0TGVuZ3RoPSIxMjMuNSIgeD0iMjQ5LjUiIHk9IjYyMC43ODkxIj4mIzEwNTc7JiMxMDg2OyYjMTA3NjsmIzEwNzc7JiMxMDg4OyYjMTA3ODsmIzEwODA7JiMxMDkwOyAmIzEwODA7JiMxMDg1OyYjMTA5MjsmIzEwODY7JiMxMDg4OyYjMTA4NDsmIzEwNzI7JiMxMDk0OyYjMTA4MDsmIzExMDI7PC90ZXh0Pjx0ZXh0IGZpbGw9IiMwMDAwMDAiIGZvbnQtZmFtaWx5PSJzYW5zLXNlcmlmIiBmb250LXNpemU9IjEzIiBsZW5ndGhBZGp1c3Q9InNwYWNpbmciIHRleHRMZW5ndGg9IjExNyIgeD0iMjQ5LjUiIHk9IjYzNC43MDMxIj4mIzEwODY7ICYjMTA4MjsmIzEwODY7JiMxMDg1OyYjMTA4MjsmIzEwODg7JiMxMDc3OyYjMTA5MDsmIzEwODU7JiMxMDg2OyYjMTA4NDsgJiMxMDg4OyYjMTA3NzsmIzEwODE7JiMxMDg5OyYjMTA3Nzs8L3RleHQ+PC9nPjwhLS1yZXZlcnNlIGxpbmsgQWlycG9ydCB0byBBaXJsaW5lLS0+PGcgY2xhc3M9ImxpbmsiIGRhdGEtZW50aXR5LTE9IkFpcnBvcnQiIGRhdGEtZW50aXR5LTI9IkFpcmxpbmUiIGRhdGEtc291cmNlLWxpbmU9IjQxIiBkYXRhLXVpZD0ibG5rNiIgaWQ9ImxpbmtfQWlycG9ydF9BaXJsaW5lIj48cGF0aCBjb2RlTGluZT0iNDEiIGQ9Ik0zNjguNzk3MywyNjcuNjExIEMzODYuMzE3MywyODkuOTQxIDM5NS4xNywzMDYuMTkgNDA0LjUsMzMzIEM0NjAuMTcsNDkyLjkyIDQ2Ni44Niw1NTYuMTggNDA1LjUsNzE0IEMzOTQuNzYsNzQxLjYxIDM3NS45Myw3NjcuMTQgMzU1LjgzLDc4OC43NSIgZmlsbD0ibm9uZSIgaWQ9IkFpcnBvcnQtYmFja3RvLUFpcmxpbmUiIHN0eWxlPSJzdHJva2U6IzE4MTgxODtzdHJva2Utd2lkdGg6MTsiLz48cG9seWdvbiBmaWxsPSIjMTgxODE4IiBwb2ludHM9IjM2MS4zOSwyNTguMTcsMzYxLjk0NjcsMjY1LjM1OTYsMzY4Ljc5NzMsMjY3LjYxMSwzNjguMjQwNiwyNjAuNDIxNCwzNjEuMzksMjU4LjE3IiBzdHlsZT0ic3Ryb2tlOiMxODE4MTg7c3Ryb2tlLXdpZHRoOjE7Ii8+PHRleHQgZmlsbD0iIzAwMDAwMCIgZm9udC1mYW1pbHk9InNhbnMtc2VyaWYiIGZvbnQtc2l6ZT0iMTMiIGxlbmd0aEFkanVzdD0ic3BhY2luZyIgdGV4dExlbmd0aD0iNTguNSIgeD0iNDQ3LjUiIHk9IjQ5OS4yODkxIj4mIzEwNDA7JiMxMDc1OyYjMTA4ODsmIzEwNzc7JiMxMDc1OyYjMTA3MjsmIzEwOTQ7JiMxMDgwOyYjMTEwMzs8L3RleHQ+PHRleHQgZmlsbD0iIzAwMDAwMCIgZm9udC1mYW1pbHk9InNhbnMtc2VyaWYiIGZvbnQtc2l6ZT0iMTMiIGxlbmd0aEFkanVzdD0ic3BhY2luZyIgdGV4dExlbmd0aD0iNi41IiB4PSIzNjIuMDQwNCIgeT0iMjc4LjE3MzUiPjE8L3RleHQ+PHRleHQgZmlsbD0iIzAwMDAwMCIgZm9udC1mYW1pbHk9InNhbnMtc2VyaWYiIGZvbnQtc2l6ZT0iMTMiIGxlbmd0aEFkanVzdD0ic3BhY2luZyIgdGV4dExlbmd0aD0iMjYiIHg9IjMzNy43MzA3IiB5PSI3NzkuMzM4NyI+MC4uKjwvdGV4dD48L2c+PCEtLXJldmVyc2UgbGluayBBaXJwb3J0IHRvIEZsaWdodC0tPjxnIGNsYXNzPSJsaW5rIiBkYXRhLWVudGl0eS0xPSJBaXJwb3J0IiBkYXRhLWVudGl0eS0yPSJGbGlnaHQiIGRhdGEtc291cmNlLWxpbmU9IjQyIiBkYXRhLXVpZD0ibG5rNyIgaWQ9ImxpbmtfQWlycG9ydF9GbGlnaHQiPjxwYXRoIGNvZGVMaW5lPSI0MiIgZD0iTTE1Mi42NDQzLDI2NS45NTkgQzEyOC4zMDQzLDI4Ni45NTkgMTE1LjE5LDMwNC4yMSAxMDEuNSwzMzMgQzcyLjI5LDM5NC40MiA3NS43NSw0NzEuODIgODUuNDQsNTMwLjk5IiBmaWxsPSJub25lIiBpZD0iQWlycG9ydC1iYWNrdG8tRmxpZ2h0IiBzdHlsZT0ic3Ryb2tlOiMxODE4MTg7c3Ryb2tlLXdpZHRoOjE7Ii8+PHBvbHlnb24gZmlsbD0iIzE4MTgxOCIgcG9pbnRzPSIxNjEuNzMsMjU4LjEyLDE1NC41NzQxLDI1OS4wMTA5LDE1Mi42NDQzLDI2NS45NTksMTU5LjgwMDEsMjY1LjA2ODEsMTYxLjczLDI1OC4xMiIgc3R5bGU9InN0cm9rZTojMTgxODE4O3N0cm9rZS13aWR0aDoxOyIvPjx0ZXh0IGZpbGw9IiMwMDAwMDAiIGZvbnQtZmFtaWx5PSJzYW5zLXNlcmlmIiBmb250LXNpemU9IjEzIiBsZW5ndGhBZGp1c3Q9InNwYWNpbmciIHRleHRMZW5ndGg9IjY1IiB4PSIxMDIuNSIgeT0iNDAwLjI4OTEiPiYjMTA1MDsmIzEwODY7JiMxMDg0OyYjMTA4NzsmIzEwODY7JiMxMDc5OyYjMTA4MDsmIzEwOTQ7JiMxMDgwOyYjMTEwMzs8L3RleHQ+PHRleHQgZmlsbD0iIzAwMDAwMCIgZm9udC1mYW1pbHk9InNhbnMtc2VyaWYiIGZvbnQtc2l6ZT0iMTMiIGxlbmd0aEFkanVzdD0ic3BhY2luZyIgdGV4dExlbmd0aD0iNi41IiB4PSIxNDMuOTc0MiIgeT0iMjc4LjExODkiPjE8L3RleHQ+PHRleHQgZmlsbD0iIzAwMDAwMCIgZm9udC1mYW1pbHk9InNhbnMtc2VyaWYiIGZvbnQtc2l6ZT0iMTMiIGxlbmd0aEFkanVzdD0ic3BhY2luZyIgdGV4dExlbmd0aD0iMjYiIHg9IjU2LjIwNzkiIHk9IjUyMS4yOTI0Ij4wLi4qPC90ZXh0PjwvZz48IS0tbGluayBGbGlnaHQgdG8gQWlybGluZS0tPjxnIGNsYXNzPSJsaW5rIiBkYXRhLWVudGl0eS0xPSJGbGlnaHQiIGRhdGEtZW50aXR5LTI9IkFpcmxpbmUiIGRhdGEtc291cmNlLWxpbmU9IjQzIiBkYXRhLXVpZD0ibG5rOCIgaWQ9ImxpbmtfRmxpZ2h0X0FpcmxpbmUiPjxwYXRoIGNvZGVMaW5lPSI0MyIgZD0iTTE3Mi4zMSw3MTQuMTEgQzE5MC4wOSw3MzguOTggMjA1LjU3ODgsNzYwLjY0MDMgMjIyLjI5ODgsNzg0LjAxMDMiIGZpbGw9Im5vbmUiIGlkPSJGbGlnaHQtdG8tQWlybGluZSIgc3R5bGU9InN0cm9rZTojMTgxODE4O3N0cm9rZS13aWR0aDoxOyIvPjxwb2x5Z29uIGZpbGw9IiMxODE4MTgiIHBvaW50cz0iMjI1Ljc5LDc4OC44OSwyMjMuODA2NCw3NzkuMjQzLDIyMi44ODA3LDc4NC44MjM2LDIxNy4zMDAxLDc4My44OTc5LDIyNS43OSw3ODguODkiIHN0eWxlPSJzdHJva2U6IzE4MTgxODtzdHJva2Utd2lkdGg6MTsiLz48dGV4dCBmaWxsPSIjMDAwMDAwIiBmb250LWZhbWlseT0ic2Fucy1zZXJpZiIgZm9udC1zaXplPSIxMyIgbGVuZ3RoQWRqdXN0PSJzcGFjaW5nIiB0ZXh0TGVuZ3RoPSI2NSIgeD0iMjAyLjUiIHk9Ijc1Ny4yODkxIj4mIzEwNDA7JiMxMDg5OyYjMTA4OTsmIzEwODY7JiMxMDk0OyYjMTA4MDsmIzEwNzI7JiMxMDk0OyYjMTA4MDsmIzExMDM7PC90ZXh0Pjx0ZXh0IGZpbGw9IiMwMDAwMDAiIGZvbnQtZmFtaWx5PSJzYW5zLXNlcmlmIiBmb250LXNpemU9IjEzIiBsZW5ndGhBZGp1c3Q9InNwYWNpbmciIHRleHRMZW5ndGg9IjYuNSIgeD0iMTcxLjI1NTQiIHk9IjczNC4yNTkyIj4xPC90ZXh0Pjx0ZXh0IGZpbGw9IiMwMDAwMDAiIGZvbnQtZmFtaWx5PSJzYW5zLXNlcmlmIiBmb250LXNpemU9IjEzIiBsZW5ndGhBZGp1c3Q9InNwYWNpbmciIHRleHRMZW5ndGg9IjYuNSIgeD0iMjEzLjgzOTkiIHk9Ijc3OS40OTQ5Ij4xPC90ZXh0PjwvZz48IS0tbGluayBTbG90UmVxdWVzdCB0byBGbGlnaHQtLT48ZyBjbGFzcz0ibGluayIgZGF0YS1lbnRpdHktMT0iU2xvdFJlcXVlc3QiIGRhdGEtZW50aXR5LTI9IkZsaWdodCIgZGF0YS1zb3VyY2UtbGluZT0iNDQiIGRhdGEtdWlkPSJsbms5IiBpZD0ibGlua19TbG90UmVxdWVzdF9GbGlnaHQiPjxwYXRoIGNvZGVMaW5lPSI0NCIgZD0iTTIzOC41Myw0NTYuMDYgQzIyMC40MSw0NzguOTUgMjEwLjU0NjQsNDkxLjQwMDEgMTkwLjY5NjQsNTE2LjQ2MDEiIGZpbGw9Im5vbmUiIGlkPSJTbG90UmVxdWVzdC10by1GbGlnaHQiIHN0eWxlPSJzdHJva2U6IzE4MTgxODtzdHJva2Utd2lkdGg6MTsiLz48cG9seWdvbiBmaWxsPSJub25lIiBwb2ludHM9IjE3OS41Miw1MzAuNTcsMTk1LjM5OTcsNTIwLjE4NTYsMTg1Ljk5MzEsNTEyLjczNDcsMTc5LjUyLDUzMC41NyIgc3R5bGU9InN0cm9rZTojMTgxODE4O3N0cm9rZS13aWR0aDoxOyIvPjx0ZXh0IGZpbGw9IiMwMDAwMDAiIGZvbnQtZmFtaWx5PSJzYW5zLXNlcmlmIiBmb250LXNpemU9IjEzIiBsZW5ndGhBZGp1c3Q9InNwYWNpbmciIHRleHRMZW5ndGg9Ijc4IiB4PSIyMTQuNSIgeT0iNDk5LjI4OTEiPiYjMTA1MzsmIzEwNzI7JiMxMDg5OyYjMTA4MzsmIzEwNzc7JiMxMDc2OyYjMTA4NjsmIzEwNzQ7JiMxMDcyOyYjMTA4NTsmIzEwODA7JiMxMDc3OzwvdGV4dD48L2c+PCEtLWxpbmsgQWlycG9ydCB0byBTbG90UmVxdWVzdC0tPjxnIGNsYXNzPSJsaW5rIiBkYXRhLWVudGl0eS0xPSJBaXJwb3J0IiBkYXRhLWVudGl0eS0yPSJTbG90UmVxdWVzdCIgZGF0YS1zb3VyY2UtbGluZT0iNDUiIGRhdGEtdWlkPSJsbmsxMCIgaWQ9ImxpbmtfQWlycG9ydF9TbG90UmVxdWVzdCI+PHBhdGggY29kZUxpbmU9IjQ1IiBkPSJNMjg2LjUsMjU4LjA4IEMyODYuNSwyODIuNjggMjg2LjUsMzAzLjY0IDI4Ni41LDMyNi45OCIgZmlsbD0ibm9uZSIgaWQ9IkFpcnBvcnQtdG8tU2xvdFJlcXVlc3QiIHN0eWxlPSJzdHJva2U6IzE4MTgxODtzdHJva2Utd2lkdGg6MTtzdHJva2UtZGFzaGFycmF5OjcuMCw3LjA7Ii8+PHBvbHlnb24gZmlsbD0iIzE4MTgxOCIgcG9pbnRzPSIyODYuNSwzMzIuOTgsMjkwLjUsMzIzLjk4LDI4Ni41LDMyNy45OCwyODIuNSwzMjMuOTgsMjg2LjUsMzMyLjk4IiBzdHlsZT0ic3Ryb2tlOiMxODE4MTg7c3Ryb2tlLXdpZHRoOjE7Ii8+PHRleHQgZmlsbD0iIzAwMDAwMCIgZm9udC1mYW1pbHk9InNhbnMtc2VyaWYiIGZvbnQtc2l6ZT0iMTMiIGxlbmd0aEFkanVzdD0ic3BhY2luZyIgdGV4dExlbmd0aD0iNzEuNSIgeD0iMjg3LjUiIHk9IjMwMS4yODkxIj4mIzEwNDc7JiMxMDcyOyYjMTA3NDsmIzEwODA7JiMxMDg5OyYjMTA4MDsmIzEwODQ7JiMxMDg2OyYjMTA4OTsmIzEwOTA7JiMxMTAwOzwvdGV4dD48L2c+PCEtLVNSQz1bVExKVFJqQ201QnhGS3JZemVIakExUlNMZ2JJMTlZNlhOVDJ6VzlrdWRLS1ExemlmQWR6Z0V5R0xDRXdHYUJZT1U4NmZRbzVxUlZTQXpYam54M1hmaWk1RGNmbnBsbEZ6RTZhR09JNUdiX0E0U09kVVUwWnYyNUNVcVBZOERkZjZYTnBLcEh5eGpZVTJLbkFjNEdjRjhaZXliU0xDX2RJT3BfMHFWZUtkcUFBblhDOXpYQ0ZHQk1jd3RNdGEyV1RqRDZPcWo2QzlQbTRIZVhTbi1Qb3lKOGNHcE1leGYyQTl5Mklkd1phVGpPZHRwYVZwbTdsZFVLNVhwVjB1UXA0VTBOVEZTWGVGUk80NmMzcmNPUnF1WTBZSEZWZ1F4MnFDWUptNmhBNGgxc3RyZ0xqbWp0REtSMzRqaXdWS2I1am1hV1JzdUpXVHpHY2xnUldUYklzNjlDNVNmZm9TS0VGYTJQUnNCV1RtSmlTdS1iVTd5ZTNaV0pvUDlCVmlZb0I4aTh0d1o0TE1GQ19KRG1USG9wVFd5TzNvcVBzd0RSanRLT2NZajVtdkxFVlJhSFlUa1RoeV9QOU9mZ0FjQ1U2S1NJZWRqTm5uMGNfQms3eHl1Mkh1cUhyWjZrNC1aRzFYa2pPS29CWTdyOExRdzdGck1zTDhSVEhBX0w5QlZPUktNYnNoSXB0SkN0Szl2U21obGVONm1tT3d6N3RLVUQxZzdKUkF6d1lEcjVUcmZRVW11MGZtN3JNY3BfLTdTVVNDYUV6ZzF5amx1MGhxM2tJdzFrRng3VmpSOVI2SVRjUXNmQWM2d0ZqbEVuTTI3eU8zRTVjZjlQMGltQ2lNV0FqSU1RbExnUHExR0J4MXEwQnNwYzFtMHFtcEZUVVZGMnpjYVkzOTRpRzZuVnkyZkFqLWdYaW1SSDNONEU5QXBuNmFFR0UtWlNkSlJlQmhzbGNxejMxZDBXTG1YY25XVnVnRzBHaU9fSGNnRXZFQWRXQnRjS1ZZNDFidzl1OVJTbzBaanNhTU5TM3k0allkUzdnUHFQMmZoVnZXNWkzUUZBT2xQY3c3aDlJak1YallGT1N4NEJQTmlJZ3ZfVzgwXS0tPjwvZz48L3N2Zz4=;" vertex="1" parent="1">
            <mxGeometry x="170" y="-200" width="514" height="933" as="geometry" />
          </mxCell>
        </UserObject>
        <UserObject label="" plantUmlData="{&#xa;  &quot;data&quot;: &quot;@startuml AirportSystem\n\nclass Airport {\n  -vector&lt;Airline*&gt; airlines\n  -vector&lt;Flight*&gt; flights\n  -int runwayCount\n  \n  +addAirline(airline: Airline*)\n  +processSlotRequest(flight: Flight*, date: Date)\n  +displayFlightSchedule()\n  +~Airport()\n}\n\nclass Airline {\n  -string name\n  -string icaoCode\n  -int fleetSize\n  \n  +Airline(name, code, fleet)\n  +getName()\n  +getIcaoCode()\n  +getFleetSize()\n}\n\nclass Flight {\n  #Airline&amp; airline\n  #string flightNumber\n  #string departureTime\n  #string arrivalTime\n  #string aircraftType\n  #bool isApproved\n  \n  +Flight(airline, number, depTime, arrTime, aircraft)\n  +requestSlot()\n  +approve()\n  +getFlightNumber()\n  +getAirline()\n  +getDepartureTime()\n  +getAircraftType()\n  +isApproved()\n  #checkRunwayAvailability()\n}\n\nclass SlotRequest {\n  -Date applicationDate\n  -string status\n  \n  +SlotRequest(flight: Flight*, date: Date)\n  +approve()\n  +getApplicationDate()\n  +getStatus()\n  +calculateOptimalSlot()\n}\n\n&#39; Связи\nAirport \&quot;1\&quot; *-- \&quot;0..*\&quot; Airline\nAirport \&quot;1\&quot; *-- \&quot;0..*\&quot; Flight\nFlight \&quot;1\&quot; --&gt; \&quot;1\&quot; Airline\nSlotRequest --|&gt; Flight\n\n@enduml&quot;,&#xa;  &quot;format&quot;: &quot;svg&quot;&#xa;}" id="MulLUZL0IZFoFFdMxcmS-2">
          <mxCell style="shape=image;noLabel=1;verticalAlign=top;aspect=fixed;imageAspect=0;image=data:image/svg+xml,PHN2ZyB4bWxucz0iaHR0cDovL3d3dy53My5vcmcvMjAwMC9zdmciIHhtbG5zOnhsaW5rPSJodHRwOi8vd3d3LnczLm9yZy8xOTk5L3hsaW5rIiBjb250ZW50U3R5bGVUeXBlPSJ0ZXh0L2NzcyIgZGF0YS1kaWFncmFtLXR5cGU9IkNMQVNTIiBoZWlnaHQ9IjcxMnB4IiBwcmVzZXJ2ZUFzcGVjdFJhdGlvPSJub25lIiBzdHlsZT0id2lkdGg6NzEwcHg7aGVpZ2h0OjcxMnB4O2JhY2tncm91bmQ6I0ZGRkZGRjsiIHZlcnNpb249IjEuMSIgdmlld0JveD0iMCAwIDcxMCA3MTIiIHdpZHRoPSI3MTBweCIgem9vbUFuZFBhbj0ibWFnbmlmeSI+PGRlZnMvPjxnPjwhLS1jbGFzcyBBaXJwb3J0LS0+PGcgY2xhc3M9ImVudGl0eSIgZGF0YS1lbnRpdHk9IkFpcnBvcnQiIGRhdGEtc291cmNlLWxpbmU9IjEiIGRhdGEtdWlkPSJlbnQwMDAyIiBpZD0iZW50aXR5X0FpcnBvcnQiPjxyZWN0IGZpbGw9IiNGMUYxRjEiIGhlaWdodD0iMTUyLjg5MDYiIHJ4PSIyLjUiIHJ5PSIyLjUiIHN0eWxlPSJzdHJva2U6IzE4MTgxODtzdHJva2Utd2lkdGg6MC41OyIgd2lkdGg9IjM1NSIgeD0iNyIgeT0iNyIvPjxlbGxpcHNlIGN4PSIxNTUuNzUiIGN5PSIyMyIgZmlsbD0iI0FERDFCMiIgcng9IjExIiByeT0iMTEiIHN0eWxlPSJzdHJva2U6IzE4MTgxODtzdHJva2Utd2lkdGg6MTsiLz48cGF0aCBkPSJNMTUzLjM3NSwyNy4yNSBMMTUzLjM3NSwyOSBMMTU4LjMxMjUsMjkgTDE1OC4zMTI1LDI3LjI1IEwxNTMuMzc1LDI3LjI1IFogTTE1NC4wNjI1LDI3LjkzNzUgUTE1NC4wNjI1LDI3LjkzNzUgMTU0LjA2MjUsMTguNzUgTDE1Mi4zMTI1LDE4Ljc1IFExNTIuMzEyNSwxOC43NSAxNTIuMzEyNSwyNy45Mzc1IEwxNTQuMDYyNSwyNy45Mzc1IFogTTE1Ny42MjUsMjcuOTM3NSBMMTU5LjM3NSwyNy45Mzc1IFExNTkuMzc1LDI3LjkzNzUgMTU5LjM3NSwyNS4xMjUgTDE1Ny42MjUsMjUuMTI1IFExNTcuNjI1LDI1LjEyNSAxNTcuNjI1LDI3LjkzNzUgWiBNMTU3LjYyNSwxOC43NSBRMTU3LjYyNSwxOC43NSAxNTcuNjI1LDIxLjU2MjUgTDE1OS4zNzUsMjEuNTYyNSBRMTU5LjM3NSwyMS41NjI1IDE1OS4zNzUsMTguNzUgTDE1Ny42MjUsMTguNzUgWiBNMTUzLjM3NSwxOS40Mzc1IEwxNTguMzEyNSwxOS40Mzc1IEwxNTguMzEyNSwxNy42ODc1IEwxNTMuMzc1LDE3LjY4NzUgTDE1My4zNzUsMTkuNDM3NSBaICIgZmlsbD0iIzAwMDAwMCIvPjx0ZXh0IGZpbGw9IiMwMDAwMDAiIGZvbnQtZmFtaWx5PSJzYW5zLXNlcmlmIiBmb250LXNpemU9IjE0IiBsZW5ndGhBZGp1c3Q9InNwYWNpbmciIHRleHRMZW5ndGg9IjQ5IiB4PSIxNzYuMjUiIHk9IjI4Ljc0MjIiPkFpcnBvcnQ8L3RleHQ+PGxpbmUgc3R5bGU9InN0cm9rZTojMTgxODE4O3N0cm9rZS13aWR0aDowLjU7IiB4MT0iOCIgeDI9IjM2MSIgeTE9IjM5IiB5Mj0iMzkiLz48cmVjdCBmaWxsPSJub25lIiBoZWlnaHQ9IjYiIHN0eWxlPSJzdHJva2U6I0M4MjkzMDtzdHJva2Utd2lkdGg6MTsiIHdpZHRoPSI2IiB4PSIxNSIgeT0iNDguOTkyMiIvPjx0ZXh0IGZpbGw9IiMwMDAwMDAiIGZvbnQtZmFtaWx5PSJzYW5zLXNlcmlmIiBmb250LXNpemU9IjE0IiBsZW5ndGhBZGp1c3Q9InNwYWNpbmciIHRleHRMZW5ndGg9IjE3NSIgeD0iMjciIHk9IjU2LjIzNDQiPnZlY3RvciZsdDtBaXJsaW5lKiZndDsgYWlybGluZXM8L3RleHQ+PHJlY3QgZmlsbD0ibm9uZSIgaGVpZ2h0PSI2IiBzdHlsZT0ic3Ryb2tlOiNDODI5MzA7c3Ryb2tlLXdpZHRoOjE7IiB3aWR0aD0iNiIgeD0iMTUiIHk9IjYzLjk3NjYiLz48dGV4dCBmaWxsPSIjMDAwMDAwIiBmb250LWZhbWlseT0ic2Fucy1zZXJpZiIgZm9udC1zaXplPSIxNCIgbGVuZ3RoQWRqdXN0PSJzcGFjaW5nIiB0ZXh0TGVuZ3RoPSIxNjEiIHg9IjI3IiB5PSI3MS4yMTg4Ij52ZWN0b3ImbHQ7RmxpZ2h0KiZndDsgZmxpZ2h0czwvdGV4dD48cmVjdCBmaWxsPSJub25lIiBoZWlnaHQ9IjYiIHN0eWxlPSJzdHJva2U6I0M4MjkzMDtzdHJva2Utd2lkdGg6MTsiIHdpZHRoPSI2IiB4PSIxNSIgeT0iNzguOTYwOSIvPjx0ZXh0IGZpbGw9IiMwMDAwMDAiIGZvbnQtZmFtaWx5PSJzYW5zLXNlcmlmIiBmb250LXNpemU9IjE0IiBsZW5ndGhBZGp1c3Q9InNwYWNpbmciIHRleHRMZW5ndGg9IjEwNSIgeD0iMjciIHk9Ijg2LjIwMzEiPmludCBydW53YXlDb3VudDwvdGV4dD48bGluZSBzdHlsZT0ic3Ryb2tlOiMxODE4MTg7c3Ryb2tlLXdpZHRoOjAuNTsiIHgxPSI4IiB4Mj0iMzYxIiB5MT0iOTEuOTUzMSIgeTI9IjkxLjk1MzEiLz48ZWxsaXBzZSBjeD0iMTgiIGN5PSIxMDQuOTQ1MyIgZmlsbD0iIzg0QkU4NCIgcng9IjMiIHJ5PSIzIiBzdHlsZT0ic3Ryb2tlOiMwMzgwNDg7c3Ryb2tlLXdpZHRoOjE7Ii8+PHRleHQgZmlsbD0iIzAwMDAwMCIgZm9udC1mYW1pbHk9InNhbnMtc2VyaWYiIGZvbnQtc2l6ZT0iMTQiIGxlbmd0aEFkanVzdD0ic3BhY2luZyIgdGV4dExlbmd0aD0iMjAzIiB4PSIyNyIgeT0iMTA5LjE4NzUiPmFkZEFpcmxpbmUoYWlybGluZTogQWlybGluZSopPC90ZXh0PjxlbGxpcHNlIGN4PSIxOCIgY3k9IjExOS45Mjk3IiBmaWxsPSIjODRCRTg0IiByeD0iMyIgcnk9IjMiIHN0eWxlPSJzdHJva2U6IzAzODA0ODtzdHJva2Utd2lkdGg6MTsiLz48dGV4dCBmaWxsPSIjMDAwMDAwIiBmb250LWZhbWlseT0ic2Fucy1zZXJpZiIgZm9udC1zaXplPSIxNCIgbGVuZ3RoQWRqdXN0PSJzcGFjaW5nIiB0ZXh0TGVuZ3RoPSIzMjkiIHg9IjI3IiB5PSIxMjQuMTcxOSI+cHJvY2Vzc1Nsb3RSZXF1ZXN0KGZsaWdodDogRmxpZ2h0KiwgZGF0ZTogRGF0ZSk8L3RleHQ+PGVsbGlwc2UgY3g9IjE4IiBjeT0iMTM0LjkxNDEiIGZpbGw9IiM4NEJFODQiIHJ4PSIzIiByeT0iMyIgc3R5bGU9InN0cm9rZTojMDM4MDQ4O3N0cm9rZS13aWR0aDoxOyIvPjx0ZXh0IGZpbGw9IiMwMDAwMDAiIGZvbnQtZmFtaWx5PSJzYW5zLXNlcmlmIiBmb250LXNpemU9IjE0IiBsZW5ndGhBZGp1c3Q9InNwYWNpbmciIHRleHRMZW5ndGg9IjE2MSIgeD0iMjciIHk9IjEzOS4xNTYzIj5kaXNwbGF5RmxpZ2h0U2NoZWR1bGUoKTwvdGV4dD48ZWxsaXBzZSBjeD0iMTgiIGN5PSIxNDkuODk4NCIgZmlsbD0iIzg0QkU4NCIgcng9IjMiIHJ5PSIzIiBzdHlsZT0ic3Ryb2tlOiMwMzgwNDg7c3Ryb2tlLXdpZHRoOjE7Ii8+PHRleHQgZmlsbD0iIzAwMDAwMCIgZm9udC1mYW1pbHk9InNhbnMtc2VyaWYiIGZvbnQtc2l6ZT0iMTQiIGxlbmd0aEFkanVzdD0ic3BhY2luZyIgdGV4dExlbmd0aD0iNzAiIHg9IjI3IiB5PSIxNTQuMTQwNiI+fkFpcnBvcnQoKTwvdGV4dD48L2c+PCEtLWNsYXNzIEFpcmxpbmUtLT48ZyBjbGFzcz0iZW50aXR5IiBkYXRhLWVudGl0eT0iQWlybGluZSIgZGF0YS1zb3VyY2UtbGluZT0iMTIiIGRhdGEtdWlkPSJlbnQwMDAzIiBpZD0iZW50aXR5X0FpcmxpbmUiPjxyZWN0IGZpbGw9IiNGMUYxRjEiIGhlaWdodD0iMTUyLjg5MDYiIHJ4PSIyLjUiIHJ5PSIyLjUiIHN0eWxlPSJzdHJva2U6IzE4MTgxODtzdHJva2Utd2lkdGg6MC41OyIgd2lkdGg9IjIwOCIgeD0iMjAyLjUiIHk9IjU1MyIvPjxlbGxpcHNlIGN4PSIyNzcuNzUiIGN5PSI1NjkiIGZpbGw9IiNBREQxQjIiIHJ4PSIxMSIgcnk9IjExIiBzdHlsZT0ic3Ryb2tlOiMxODE4MTg7c3Ryb2tlLXdpZHRoOjE7Ii8+PHBhdGggZD0iTTI3NS4zNzUsNTczLjI1IEwyNzUuMzc1LDU3NSBMMjgwLjMxMjUsNTc1IEwyODAuMzEyNSw1NzMuMjUgTDI3NS4zNzUsNTczLjI1IFogTTI3Ni4wNjI1LDU3My45Mzc1IFEyNzYuMDYyNSw1NzMuOTM3NSAyNzYuMDYyNSw1NjQuNzUgTDI3NC4zMTI1LDU2NC43NSBRMjc0LjMxMjUsNTY0Ljc1IDI3NC4zMTI1LDU3My45Mzc1IEwyNzYuMDYyNSw1NzMuOTM3NSBaIE0yNzkuNjI1LDU3My45Mzc1IEwyODEuMzc1LDU3My45Mzc1IFEyODEuMzc1LDU3My45Mzc1IDI4MS4zNzUsNTcxLjEyNSBMMjc5LjYyNSw1NzEuMTI1IFEyNzkuNjI1LDU3MS4xMjUgMjc5LjYyNSw1NzMuOTM3NSBaIE0yNzkuNjI1LDU2NC43NSBRMjc5LjYyNSw1NjQuNzUgMjc5LjYyNSw1NjcuNTYyNSBMMjgxLjM3NSw1NjcuNTYyNSBRMjgxLjM3NSw1NjcuNTYyNSAyODEuMzc1LDU2NC43NSBMMjc5LjYyNSw1NjQuNzUgWiBNMjc1LjM3NSw1NjUuNDM3NSBMMjgwLjMxMjUsNTY1LjQzNzUgTDI4MC4zMTI1LDU2My42ODc1IEwyNzUuMzc1LDU2My42ODc1IEwyNzUuMzc1LDU2NS40Mzc1IFogIiBmaWxsPSIjMDAwMDAwIi8+PHRleHQgZmlsbD0iIzAwMDAwMCIgZm9udC1mYW1pbHk9InNhbnMtc2VyaWYiIGZvbnQtc2l6ZT0iMTQiIGxlbmd0aEFkanVzdD0ic3BhY2luZyIgdGV4dExlbmd0aD0iNDkiIHg9IjI5OC4yNSIgeT0iNTc0Ljc0MjIiPkFpcmxpbmU8L3RleHQ+PGxpbmUgc3R5bGU9InN0cm9rZTojMTgxODE4O3N0cm9rZS13aWR0aDowLjU7IiB4MT0iMjAzLjUiIHgyPSI0MDkuNSIgeTE9IjU4NSIgeTI9IjU4NSIvPjxyZWN0IGZpbGw9Im5vbmUiIGhlaWdodD0iNiIgc3R5bGU9InN0cm9rZTojQzgyOTMwO3N0cm9rZS13aWR0aDoxOyIgd2lkdGg9IjYiIHg9IjIxMC41IiB5PSI1OTQuOTkyMiIvPjx0ZXh0IGZpbGw9IiMwMDAwMDAiIGZvbnQtZmFtaWx5PSJzYW5zLXNlcmlmIiBmb250LXNpemU9IjE0IiBsZW5ndGhBZGp1c3Q9InNwYWNpbmciIHRleHRMZW5ndGg9Ijc3IiB4PSIyMjIuNSIgeT0iNjAyLjIzNDQiPnN0cmluZyBuYW1lPC90ZXh0PjxyZWN0IGZpbGw9Im5vbmUiIGhlaWdodD0iNiIgc3R5bGU9InN0cm9rZTojQzgyOTMwO3N0cm9rZS13aWR0aDoxOyIgd2lkdGg9IjYiIHg9IjIxMC41IiB5PSI2MDkuOTc2NiIvPjx0ZXh0IGZpbGw9IiMwMDAwMDAiIGZvbnQtZmFtaWx5PSJzYW5zLXNlcmlmIiBmb250LXNpemU9IjE0IiBsZW5ndGhBZGp1c3Q9InNwYWNpbmciIHRleHRMZW5ndGg9IjEwNSIgeD0iMjIyLjUiIHk9IjYxNy4yMTg4Ij5zdHJpbmcgaWNhb0NvZGU8L3RleHQ+PHJlY3QgZmlsbD0ibm9uZSIgaGVpZ2h0PSI2IiBzdHlsZT0ic3Ryb2tlOiNDODI5MzA7c3Ryb2tlLXdpZHRoOjE7IiB3aWR0aD0iNiIgeD0iMjEwLjUiIHk9IjYyNC45NjA5Ii8+PHRleHQgZmlsbD0iIzAwMDAwMCIgZm9udC1mYW1pbHk9InNhbnMtc2VyaWYiIGZvbnQtc2l6ZT0iMTQiIGxlbmd0aEFkanVzdD0ic3BhY2luZyIgdGV4dExlbmd0aD0iOTEiIHg9IjIyMi41IiB5PSI2MzIuMjAzMSI+aW50IGZsZWV0U2l6ZTwvdGV4dD48bGluZSBzdHlsZT0ic3Ryb2tlOiMxODE4MTg7c3Ryb2tlLXdpZHRoOjAuNTsiIHgxPSIyMDMuNSIgeDI9IjQwOS41IiB5MT0iNjM3Ljk1MzEiIHkyPSI2MzcuOTUzMSIvPjxlbGxpcHNlIGN4PSIyMTMuNSIgY3k9IjY1MC45NDUzIiBmaWxsPSIjODRCRTg0IiByeD0iMyIgcnk9IjMiIHN0eWxlPSJzdHJva2U6IzAzODA0ODtzdHJva2Utd2lkdGg6MTsiLz48dGV4dCBmaWxsPSIjMDAwMDAwIiBmb250LWZhbWlseT0ic2Fucy1zZXJpZiIgZm9udC1zaXplPSIxNCIgbGVuZ3RoQWRqdXN0PSJzcGFjaW5nIiB0ZXh0TGVuZ3RoPSIxODIiIHg9IjIyMi41IiB5PSI2NTUuMTg3NSI+QWlybGluZShuYW1lLCBjb2RlLCBmbGVldCk8L3RleHQ+PGVsbGlwc2UgY3g9IjIxMy41IiBjeT0iNjY1LjkyOTciIGZpbGw9IiM4NEJFODQiIHJ4PSIzIiByeT0iMyIgc3R5bGU9InN0cm9rZTojMDM4MDQ4O3N0cm9rZS13aWR0aDoxOyIvPjx0ZXh0IGZpbGw9IiMwMDAwMDAiIGZvbnQtZmFtaWx5PSJzYW5zLXNlcmlmIiBmb250LXNpemU9IjE0IiBsZW5ndGhBZGp1c3Q9InNwYWNpbmciIHRleHRMZW5ndGg9IjYzIiB4PSIyMjIuNSIgeT0iNjcwLjE3MTkiPmdldE5hbWUoKTwvdGV4dD48ZWxsaXBzZSBjeD0iMjEzLjUiIGN5PSI2ODAuOTE0MSIgZmlsbD0iIzg0QkU4NCIgcng9IjMiIHJ5PSIzIiBzdHlsZT0ic3Ryb2tlOiMwMzgwNDg7c3Ryb2tlLXdpZHRoOjE7Ii8+PHRleHQgZmlsbD0iIzAwMDAwMCIgZm9udC1mYW1pbHk9InNhbnMtc2VyaWYiIGZvbnQtc2l6ZT0iMTQiIGxlbmd0aEFkanVzdD0ic3BhY2luZyIgdGV4dExlbmd0aD0iOTEiIHg9IjIyMi41IiB5PSI2ODUuMTU2MyI+Z2V0SWNhb0NvZGUoKTwvdGV4dD48ZWxsaXBzZSBjeD0iMjEzLjUiIGN5PSI2OTUuODk4NCIgZmlsbD0iIzg0QkU4NCIgcng9IjMiIHJ5PSIzIiBzdHlsZT0ic3Ryb2tlOiMwMzgwNDg7c3Ryb2tlLXdpZHRoOjE7Ii8+PHRleHQgZmlsbD0iIzAwMDAwMCIgZm9udC1mYW1pbHk9InNhbnMtc2VyaWYiIGZvbnQtc2l6ZT0iMTQiIGxlbmd0aEFkanVzdD0ic3BhY2luZyIgdGV4dExlbmd0aD0iOTgiIHg9IjIyMi41IiB5PSI3MDAuMTQwNiI+Z2V0RmxlZXRTaXplKCk8L3RleHQ+PC9nPjwhLS1jbGFzcyBGbGlnaHQtLT48ZyBjbGFzcz0iZW50aXR5IiBkYXRhLWVudGl0eT0iRmxpZ2h0IiBkYXRhLXNvdXJjZS1saW5lPSIyMyIgZGF0YS11aWQ9ImVudDAwMDQiIGlkPSJlbnRpdHlfRmxpZ2h0Ij48cmVjdCBmaWxsPSIjRjFGMUYxIiBoZWlnaHQ9IjI3Mi43NjU2IiByeD0iMi41IiByeT0iMi41IiBzdHlsZT0ic3Ryb2tlOiMxODE4MTg7c3Ryb2tlLXdpZHRoOjAuNTsiIHdpZHRoPSIzODMiIHg9IjIzNyIgeT0iMjIwIi8+PGVsbGlwc2UgY3g9IjQwMy4yNSIgY3k9IjIzNiIgZmlsbD0iI0FERDFCMiIgcng9IjExIiByeT0iMTEiIHN0eWxlPSJzdHJva2U6IzE4MTgxODtzdHJva2Utd2lkdGg6MTsiLz48cGF0aCBkPSJNNDAwLjg3NSwyNDAuMjUgTDQwMC44NzUsMjQyIEw0MDUuODEyNSwyNDIgTDQwNS44MTI1LDI0MC4yNSBMNDAwLjg3NSwyNDAuMjUgWiBNNDAxLjU2MjUsMjQwLjkzNzUgUTQwMS41NjI1LDI0MC45Mzc1IDQwMS41NjI1LDIzMS43NSBMMzk5LjgxMjUsMjMxLjc1IFEzOTkuODEyNSwyMzEuNzUgMzk5LjgxMjUsMjQwLjkzNzUgTDQwMS41NjI1LDI0MC45Mzc1IFogTTQwNS4xMjUsMjQwLjkzNzUgTDQwNi44NzUsMjQwLjkzNzUgUTQwNi44NzUsMjQwLjkzNzUgNDA2Ljg3NSwyMzguMTI1IEw0MDUuMTI1LDIzOC4xMjUgUTQwNS4xMjUsMjM4LjEyNSA0MDUuMTI1LDI0MC45Mzc1IFogTTQwNS4xMjUsMjMxLjc1IFE0MDUuMTI1LDIzMS43NSA0MDUuMTI1LDIzNC41NjI1IEw0MDYuODc1LDIzNC41NjI1IFE0MDYuODc1LDIzNC41NjI1IDQwNi44NzUsMjMxLjc1IEw0MDUuMTI1LDIzMS43NSBaIE00MDAuODc1LDIzMi40Mzc1IEw0MDUuODEyNSwyMzIuNDM3NSBMNDA1LjgxMjUsMjMwLjY4NzUgTDQwMC44NzUsMjMwLjY4NzUgTDQwMC44NzUsMjMyLjQzNzUgWiAiIGZpbGw9IiMwMDAwMDAiLz48dGV4dCBmaWxsPSIjMDAwMDAwIiBmb250LWZhbWlseT0ic2Fucy1zZXJpZiIgZm9udC1zaXplPSIxNCIgbGVuZ3RoQWRqdXN0PSJzcGFjaW5nIiB0ZXh0TGVuZ3RoPSI0MiIgeD0iNDIzLjc1IiB5PSIyNDEuNzQyMiI+RmxpZ2h0PC90ZXh0PjxsaW5lIHN0eWxlPSJzdHJva2U6IzE4MTgxODtzdHJva2Utd2lkdGg6MC41OyIgeDE9IjIzOCIgeDI9IjYxOSIgeTE9IjI1MiIgeTI9IjI1MiIvPjxwb2x5Z29uIGZpbGw9Im5vbmUiIHBvaW50cz0iMjQ4LDI1OS45OTIyLDI1MiwyNjMuOTkyMiwyNDgsMjY3Ljk5MjIsMjQ0LDI2My45OTIyIiBzdHlsZT0ic3Ryb2tlOiNCMzhEMjI7c3Ryb2tlLXdpZHRoOjE7Ii8+PHRleHQgZmlsbD0iIzAwMDAwMCIgZm9udC1mYW1pbHk9InNhbnMtc2VyaWYiIGZvbnQtc2l6ZT0iMTQiIGxlbmd0aEFkanVzdD0ic3BhY2luZyIgdGV4dExlbmd0aD0iMTEyIiB4PSIyNTciIHk9IjI2OS4yMzQ0Ij5BaXJsaW5lJmFtcDsgYWlybGluZTwvdGV4dD48cG9seWdvbiBmaWxsPSJub25lIiBwb2ludHM9IjI0OCwyNzQuOTc2NiwyNTIsMjc4Ljk3NjYsMjQ4LDI4Mi45NzY2LDI0NCwyNzguOTc2NiIgc3R5bGU9InN0cm9rZTojQjM4RDIyO3N0cm9rZS13aWR0aDoxOyIvPjx0ZXh0IGZpbGw9IiMwMDAwMDAiIGZvbnQtZmFtaWx5PSJzYW5zLXNlcmlmIiBmb250LXNpemU9IjE0IiBsZW5ndGhBZGp1c3Q9InNwYWNpbmciIHRleHRMZW5ndGg9IjEzMyIgeD0iMjU3IiB5PSIyODQuMjE4OCI+c3RyaW5nIGZsaWdodE51bWJlcjwvdGV4dD48cG9seWdvbiBmaWxsPSJub25lIiBwb2ludHM9IjI0OCwyODkuOTYwOSwyNTIsMjkzLjk2MDksMjQ4LDI5Ny45NjA5LDI0NCwyOTMuOTYwOSIgc3R5bGU9InN0cm9rZTojQjM4RDIyO3N0cm9rZS13aWR0aDoxOyIvPjx0ZXh0IGZpbGw9IiMwMDAwMDAiIGZvbnQtZmFtaWx5PSJzYW5zLXNlcmlmIiBmb250LXNpemU9IjE0IiBsZW5ndGhBZGp1c3Q9InNwYWNpbmciIHRleHRMZW5ndGg9IjE0MCIgeD0iMjU3IiB5PSIyOTkuMjAzMSI+c3RyaW5nIGRlcGFydHVyZVRpbWU8L3RleHQ+PHBvbHlnb24gZmlsbD0ibm9uZSIgcG9pbnRzPSIyNDgsMzA0Ljk0NTMsMjUyLDMwOC45NDUzLDI0OCwzMTIuOTQ1MywyNDQsMzA4Ljk0NTMiIHN0eWxlPSJzdHJva2U6I0IzOEQyMjtzdHJva2Utd2lkdGg6MTsiLz48dGV4dCBmaWxsPSIjMDAwMDAwIiBmb250LWZhbWlseT0ic2Fucy1zZXJpZiIgZm9udC1zaXplPSIxNCIgbGVuZ3RoQWRqdXN0PSJzcGFjaW5nIiB0ZXh0TGVuZ3RoPSIxMjYiIHg9IjI1NyIgeT0iMzE0LjE4NzUiPnN0cmluZyBhcnJpdmFsVGltZTwvdGV4dD48cG9seWdvbiBmaWxsPSJub25lIiBwb2ludHM9IjI0OCwzMTkuOTI5NywyNTIsMzIzLjkyOTcsMjQ4LDMyNy45Mjk3LDI0NCwzMjMuOTI5NyIgc3R5bGU9InN0cm9rZTojQjM4RDIyO3N0cm9rZS13aWR0aDoxOyIvPjx0ZXh0IGZpbGw9IiMwMDAwMDAiIGZvbnQtZmFtaWx5PSJzYW5zLXNlcmlmIiBmb250LXNpemU9IjE0IiBsZW5ndGhBZGp1c3Q9InNwYWNpbmciIHRleHRMZW5ndGg9IjEzMyIgeD0iMjU3IiB5PSIzMjkuMTcxOSI+c3RyaW5nIGFpcmNyYWZ0VHlwZTwvdGV4dD48cG9seWdvbiBmaWxsPSJub25lIiBwb2ludHM9IjI0OCwzMzQuOTE0MSwyNTIsMzM4LjkxNDEsMjQ4LDM0Mi45MTQxLDI0NCwzMzguOTE0MSIgc3R5bGU9InN0cm9rZTojQjM4RDIyO3N0cm9rZS13aWR0aDoxOyIvPjx0ZXh0IGZpbGw9IiMwMDAwMDAiIGZvbnQtZmFtaWx5PSJzYW5zLXNlcmlmIiBmb250LXNpemU9IjE0IiBsZW5ndGhBZGp1c3Q9InNwYWNpbmciIHRleHRMZW5ndGg9IjEwNSIgeD0iMjU3IiB5PSIzNDQuMTU2MyI+Ym9vbCBpc0FwcHJvdmVkPC90ZXh0PjxsaW5lIHN0eWxlPSJzdHJva2U6IzE4MTgxODtzdHJva2Utd2lkdGg6MC41OyIgeDE9IjIzOCIgeDI9IjYxOSIgeTE9IjM0OS45MDYzIiB5Mj0iMzQ5LjkwNjMiLz48ZWxsaXBzZSBjeD0iMjQ4IiBjeT0iMzYyLjg5ODQiIGZpbGw9IiM4NEJFODQiIHJ4PSIzIiByeT0iMyIgc3R5bGU9InN0cm9rZTojMDM4MDQ4O3N0cm9rZS13aWR0aDoxOyIvPjx0ZXh0IGZpbGw9IiMwMDAwMDAiIGZvbnQtZmFtaWx5PSJzYW5zLXNlcmlmIiBmb250LXNpemU9IjE0IiBsZW5ndGhBZGp1c3Q9InNwYWNpbmciIHRleHRMZW5ndGg9IjM1NyIgeD0iMjU3IiB5PSIzNjcuMTQwNiI+RmxpZ2h0KGFpcmxpbmUsIG51bWJlciwgZGVwVGltZSwgYXJyVGltZSwgYWlyY3JhZnQpPC90ZXh0PjxlbGxpcHNlIGN4PSIyNDgiIGN5PSIzNzcuODgyOCIgZmlsbD0iIzg0QkU4NCIgcng9IjMiIHJ5PSIzIiBzdHlsZT0ic3Ryb2tlOiMwMzgwNDg7c3Ryb2tlLXdpZHRoOjE7Ii8+PHRleHQgZmlsbD0iIzAwMDAwMCIgZm9udC1mYW1pbHk9InNhbnMtc2VyaWYiIGZvbnQtc2l6ZT0iMTQiIGxlbmd0aEFkanVzdD0ic3BhY2luZyIgdGV4dExlbmd0aD0iOTEiIHg9IjI1NyIgeT0iMzgyLjEyNSI+cmVxdWVzdFNsb3QoKTwvdGV4dD48ZWxsaXBzZSBjeD0iMjQ4IiBjeT0iMzkyLjg2NzIiIGZpbGw9IiM4NEJFODQiIHJ4PSIzIiByeT0iMyIgc3R5bGU9InN0cm9rZTojMDM4MDQ4O3N0cm9rZS13aWR0aDoxOyIvPjx0ZXh0IGZpbGw9IiMwMDAwMDAiIGZvbnQtZmFtaWx5PSJzYW5zLXNlcmlmIiBmb250LXNpemU9IjE0IiBsZW5ndGhBZGp1c3Q9InNwYWNpbmciIHRleHRMZW5ndGg9IjYzIiB4PSIyNTciIHk9IjM5Ny4xMDk0Ij5hcHByb3ZlKCk8L3RleHQ+PGVsbGlwc2UgY3g9IjI0OCIgY3k9IjQwNy44NTE2IiBmaWxsPSIjODRCRTg0IiByeD0iMyIgcnk9IjMiIHN0eWxlPSJzdHJva2U6IzAzODA0ODtzdHJva2Utd2lkdGg6MTsiLz48dGV4dCBmaWxsPSIjMDAwMDAwIiBmb250LWZhbWlseT0ic2Fucy1zZXJpZiIgZm9udC1zaXplPSIxNCIgbGVuZ3RoQWRqdXN0PSJzcGFjaW5nIiB0ZXh0TGVuZ3RoPSIxMTkiIHg9IjI1NyIgeT0iNDEyLjA5MzgiPmdldEZsaWdodE51bWJlcigpPC90ZXh0PjxlbGxpcHNlIGN4PSIyNDgiIGN5PSI0MjIuODM1OSIgZmlsbD0iIzg0QkU4NCIgcng9IjMiIHJ5PSIzIiBzdHlsZT0ic3Ryb2tlOiMwMzgwNDg7c3Ryb2tlLXdpZHRoOjE7Ii8+PHRleHQgZmlsbD0iIzAwMDAwMCIgZm9udC1mYW1pbHk9InNhbnMtc2VyaWYiIGZvbnQtc2l6ZT0iMTQiIGxlbmd0aEFkanVzdD0ic3BhY2luZyIgdGV4dExlbmd0aD0iODQiIHg9IjI1NyIgeT0iNDI3LjA3ODEiPmdldEFpcmxpbmUoKTwvdGV4dD48ZWxsaXBzZSBjeD0iMjQ4IiBjeT0iNDM3LjgyMDMiIGZpbGw9IiM4NEJFODQiIHJ4PSIzIiByeT0iMyIgc3R5bGU9InN0cm9rZTojMDM4MDQ4O3N0cm9rZS13aWR0aDoxOyIvPjx0ZXh0IGZpbGw9IiMwMDAwMDAiIGZvbnQtZmFtaWx5PSJzYW5zLXNlcmlmIiBmb250LXNpemU9IjE0IiBsZW5ndGhBZGp1c3Q9InNwYWNpbmciIHRleHRMZW5ndGg9IjEyNiIgeD0iMjU3IiB5PSI0NDIuMDYyNSI+Z2V0RGVwYXJ0dXJlVGltZSgpPC90ZXh0PjxlbGxpcHNlIGN4PSIyNDgiIGN5PSI0NTIuODA0NyIgZmlsbD0iIzg0QkU4NCIgcng9IjMiIHJ5PSIzIiBzdHlsZT0ic3Ryb2tlOiMwMzgwNDg7c3Ryb2tlLXdpZHRoOjE7Ii8+PHRleHQgZmlsbD0iIzAwMDAwMCIgZm9udC1mYW1pbHk9InNhbnMtc2VyaWYiIGZvbnQtc2l6ZT0iMTQiIGxlbmd0aEFkanVzdD0ic3BhY2luZyIgdGV4dExlbmd0aD0iMTE5IiB4PSIyNTciIHk9IjQ1Ny4wNDY5Ij5nZXRBaXJjcmFmdFR5cGUoKTwvdGV4dD48ZWxsaXBzZSBjeD0iMjQ4IiBjeT0iNDY3Ljc4OTEiIGZpbGw9IiM4NEJFODQiIHJ4PSIzIiByeT0iMyIgc3R5bGU9InN0cm9rZTojMDM4MDQ4O3N0cm9rZS13aWR0aDoxOyIvPjx0ZXh0IGZpbGw9IiMwMDAwMDAiIGZvbnQtZmFtaWx5PSJzYW5zLXNlcmlmIiBmb250LXNpemU9IjE0IiBsZW5ndGhBZGp1c3Q9InNwYWNpbmciIHRleHRMZW5ndGg9Ijg0IiB4PSIyNTciIHk9IjQ3Mi4wMzEzIj5pc0FwcHJvdmVkKCk8L3RleHQ+PHBvbHlnb24gZmlsbD0iI0ZGRkY0NCIgcG9pbnRzPSIyNDgsNDc3Ljc3MzQsMjUyLDQ4MS43NzM0LDI0OCw0ODUuNzczNCwyNDQsNDgxLjc3MzQiIHN0eWxlPSJzdHJva2U6I0IzOEQyMjtzdHJva2Utd2lkdGg6MTsiLz48dGV4dCBmaWxsPSIjMDAwMDAwIiBmb250LWZhbWlseT0ic2Fucy1zZXJpZiIgZm9udC1zaXplPSIxNCIgbGVuZ3RoQWRqdXN0PSJzcGFjaW5nIiB0ZXh0TGVuZ3RoPSIxNzUiIHg9IjI1NyIgeT0iNDg3LjAxNTYiPmNoZWNrUnVud2F5QXZhaWxhYmlsaXR5KCk8L3RleHQ+PC9nPjwhLS1jbGFzcyBTbG90UmVxdWVzdC0tPjxnIGNsYXNzPSJlbnRpdHkiIGRhdGEtZW50aXR5PSJTbG90UmVxdWVzdCIgZGF0YS1zb3VyY2UtbGluZT0iNDIiIGRhdGEtdWlkPSJlbnQwMDA1IiBpZD0iZW50aXR5X1Nsb3RSZXF1ZXN0Ij48cmVjdCBmaWxsPSIjRjFGMUYxIiBoZWlnaHQ9IjE1Mi44OTA2IiByeD0iMi41IiByeT0iMi41IiBzdHlsZT0ic3Ryb2tlOiMxODE4MTg7c3Ryb2tlLXdpZHRoOjAuNTsiIHdpZHRoPSIzMDYiIHg9IjM5Ny41IiB5PSI3Ii8+PGVsbGlwc2UgY3g9IjUwNy43NSIgY3k9IjIzIiBmaWxsPSIjQUREMUIyIiByeD0iMTEiIHJ5PSIxMSIgc3R5bGU9InN0cm9rZTojMTgxODE4O3N0cm9rZS13aWR0aDoxOyIvPjxwYXRoIGQ9Ik01MDUuMzc1LDI3LjI1IEw1MDUuMzc1LDI5IEw1MTAuMzEyNSwyOSBMNTEwLjMxMjUsMjcuMjUgTDUwNS4zNzUsMjcuMjUgWiBNNTA2LjA2MjUsMjcuOTM3NSBRNTA2LjA2MjUsMjcuOTM3NSA1MDYuMDYyNSwxOC43NSBMNTA0LjMxMjUsMTguNzUgUTUwNC4zMTI1LDE4Ljc1IDUwNC4zMTI1LDI3LjkzNzUgTDUwNi4wNjI1LDI3LjkzNzUgWiBNNTA5LjYyNSwyNy45Mzc1IEw1MTEuMzc1LDI3LjkzNzUgUTUxMS4zNzUsMjcuOTM3NSA1MTEuMzc1LDI1LjEyNSBMNTA5LjYyNSwyNS4xMjUgUTUwOS42MjUsMjUuMTI1IDUwOS42MjUsMjcuOTM3NSBaIE01MDkuNjI1LDE4Ljc1IFE1MDkuNjI1LDE4Ljc1IDUwOS42MjUsMjEuNTYyNSBMNTExLjM3NSwyMS41NjI1IFE1MTEuMzc1LDIxLjU2MjUgNTExLjM3NSwxOC43NSBMNTA5LjYyNSwxOC43NSBaIE01MDUuMzc1LDE5LjQzNzUgTDUxMC4zMTI1LDE5LjQzNzUgTDUxMC4zMTI1LDE3LjY4NzUgTDUwNS4zNzUsMTcuNjg3NSBMNTA1LjM3NSwxOS40Mzc1IFogIiBmaWxsPSIjMDAwMDAwIi8+PHRleHQgZmlsbD0iIzAwMDAwMCIgZm9udC1mYW1pbHk9InNhbnMtc2VyaWYiIGZvbnQtc2l6ZT0iMTQiIGxlbmd0aEFkanVzdD0ic3BhY2luZyIgdGV4dExlbmd0aD0iNzciIHg9IjUyOC4yNSIgeT0iMjguNzQyMiI+U2xvdFJlcXVlc3Q8L3RleHQ+PGxpbmUgc3R5bGU9InN0cm9rZTojMTgxODE4O3N0cm9rZS13aWR0aDowLjU7IiB4MT0iMzk4LjUiIHgyPSI3MDIuNSIgeTE9IjM5IiB5Mj0iMzkiLz48cmVjdCBmaWxsPSJub25lIiBoZWlnaHQ9IjYiIHN0eWxlPSJzdHJva2U6I0M4MjkzMDtzdHJva2Utd2lkdGg6MTsiIHdpZHRoPSI2IiB4PSI0MDUuNSIgeT0iNDguOTkyMiIvPjx0ZXh0IGZpbGw9IiMwMDAwMDAiIGZvbnQtZmFtaWx5PSJzYW5zLXNlcmlmIiBmb250LXNpemU9IjE0IiBsZW5ndGhBZGp1c3Q9InNwYWNpbmciIHRleHRMZW5ndGg9IjE0MCIgeD0iNDE3LjUiIHk9IjU2LjIzNDQiPkRhdGUgYXBwbGljYXRpb25EYXRlPC90ZXh0PjxyZWN0IGZpbGw9Im5vbmUiIGhlaWdodD0iNiIgc3R5bGU9InN0cm9rZTojQzgyOTMwO3N0cm9rZS13aWR0aDoxOyIgd2lkdGg9IjYiIHg9IjQwNS41IiB5PSI2My45NzY2Ii8+PHRleHQgZmlsbD0iIzAwMDAwMCIgZm9udC1mYW1pbHk9InNhbnMtc2VyaWYiIGZvbnQtc2l6ZT0iMTQiIGxlbmd0aEFkanVzdD0ic3BhY2luZyIgdGV4dExlbmd0aD0iOTEiIHg9IjQxNy41IiB5PSI3MS4yMTg4Ij5zdHJpbmcgc3RhdHVzPC90ZXh0PjxsaW5lIHN0eWxlPSJzdHJva2U6IzE4MTgxODtzdHJva2Utd2lkdGg6MC41OyIgeDE9IjM5OC41IiB4Mj0iNzAyLjUiIHkxPSI3Ni45Njg4IiB5Mj0iNzYuOTY4OCIvPjxlbGxpcHNlIGN4PSI0MDguNSIgY3k9Ijg5Ljk2MDkiIGZpbGw9IiM4NEJFODQiIHJ4PSIzIiByeT0iMyIgc3R5bGU9InN0cm9rZTojMDM4MDQ4O3N0cm9rZS13aWR0aDoxOyIvPjx0ZXh0IGZpbGw9IiMwMDAwMDAiIGZvbnQtZmFtaWx5PSJzYW5zLXNlcmlmIiBmb250LXNpemU9IjE0IiBsZW5ndGhBZGp1c3Q9InNwYWNpbmciIHRleHRMZW5ndGg9IjI4MCIgeD0iNDE3LjUiIHk9Ijk0LjIwMzEiPlNsb3RSZXF1ZXN0KGZsaWdodDogRmxpZ2h0KiwgZGF0ZTogRGF0ZSk8L3RleHQ+PGVsbGlwc2UgY3g9IjQwOC41IiBjeT0iMTA0Ljk0NTMiIGZpbGw9IiM4NEJFODQiIHJ4PSIzIiByeT0iMyIgc3R5bGU9InN0cm9rZTojMDM4MDQ4O3N0cm9rZS13aWR0aDoxOyIvPjx0ZXh0IGZpbGw9IiMwMDAwMDAiIGZvbnQtZmFtaWx5PSJzYW5zLXNlcmlmIiBmb250LXNpemU9IjE0IiBsZW5ndGhBZGp1c3Q9InNwYWNpbmciIHRleHRMZW5ndGg9IjYzIiB4PSI0MTcuNSIgeT0iMTA5LjE4NzUiPmFwcHJvdmUoKTwvdGV4dD48ZWxsaXBzZSBjeD0iNDA4LjUiIGN5PSIxMTkuOTI5NyIgZmlsbD0iIzg0QkU4NCIgcng9IjMiIHJ5PSIzIiBzdHlsZT0ic3Ryb2tlOiMwMzgwNDg7c3Ryb2tlLXdpZHRoOjE7Ii8+PHRleHQgZmlsbD0iIzAwMDAwMCIgZm9udC1mYW1pbHk9InNhbnMtc2VyaWYiIGZvbnQtc2l6ZT0iMTQiIGxlbmd0aEFkanVzdD0ic3BhY2luZyIgdGV4dExlbmd0aD0iMTQwIiB4PSI0MTcuNSIgeT0iMTI0LjE3MTkiPmdldEFwcGxpY2F0aW9uRGF0ZSgpPC90ZXh0PjxlbGxpcHNlIGN4PSI0MDguNSIgY3k9IjEzNC45MTQxIiBmaWxsPSIjODRCRTg0IiByeD0iMyIgcnk9IjMiIHN0eWxlPSJzdHJva2U6IzAzODA0ODtzdHJva2Utd2lkdGg6MTsiLz48dGV4dCBmaWxsPSIjMDAwMDAwIiBmb250LWZhbWlseT0ic2Fucy1zZXJpZiIgZm9udC1zaXplPSIxNCIgbGVuZ3RoQWRqdXN0PSJzcGFjaW5nIiB0ZXh0TGVuZ3RoPSI3NyIgeD0iNDE3LjUiIHk9IjEzOS4xNTYzIj5nZXRTdGF0dXMoKTwvdGV4dD48ZWxsaXBzZSBjeD0iNDA4LjUiIGN5PSIxNDkuODk4NCIgZmlsbD0iIzg0QkU4NCIgcng9IjMiIHJ5PSIzIiBzdHlsZT0ic3Ryb2tlOiMwMzgwNDg7c3Ryb2tlLXdpZHRoOjE7Ii8+PHRleHQgZmlsbD0iIzAwMDAwMCIgZm9udC1mYW1pbHk9InNhbnMtc2VyaWYiIGZvbnQtc2l6ZT0iMTQiIGxlbmd0aEFkanVzdD0ic3BhY2luZyIgdGV4dExlbmd0aD0iMTU0IiB4PSI0MTcuNSIgeT0iMTU0LjE0MDYiPmNhbGN1bGF0ZU9wdGltYWxTbG90KCk8L3RleHQ+PC9nPjwhLS1yZXZlcnNlIGxpbmsgQWlycG9ydCB0byBBaXJsaW5lLS0+PGcgY2xhc3M9ImxpbmsiIGRhdGEtZW50aXR5LTE9IkFpcnBvcnQiIGRhdGEtZW50aXR5LTI9IkFpcmxpbmUiIGRhdGEtc291cmNlLWxpbmU9IjU0IiBkYXRhLXVpZD0ibG5rNiIgaWQ9ImxpbmtfQWlycG9ydF9BaXJsaW5lIj48cGF0aCBjb2RlTGluZT0iNTQiIGQ9Ik0xNzkuOTY3NiwxNzIuMTI1NyBDMTc3LjcxNzYsMjU1LjgzNTcgMTgxLjU5LDM4MS42NSAyMTkuNSw0OTMgQzIyNi40OCw1MTMuNTEgMjM3LjIxLDUzNC4wMiAyNDguNzgsNTUyLjY1IiBmaWxsPSJub25lIiBpZD0iQWlycG9ydC1iYWNrdG8tQWlybGluZSIgc3R5bGU9InN0cm9rZTojMTgxODE4O3N0cm9rZS13aWR0aDoxOyIvPjxwb2x5Z29uIGZpbGw9IiMxODE4MTgiIHBvaW50cz0iMTgwLjI5LDE2MC4xMywxNzYuMTMwMiwxNjYuMDIwNCwxNzkuOTY3NiwxNzIuMTI1NywxODQuMTI3MywxNjYuMjM1MywxODAuMjksMTYwLjEzIiBzdHlsZT0ic3Ryb2tlOiMxODE4MTg7c3Ryb2tlLXdpZHRoOjE7Ii8+PHRleHQgZmlsbD0iIzAwMDAwMCIgZm9udC1mYW1pbHk9InNhbnMtc2VyaWYiIGZvbnQtc2l6ZT0iMTMiIGxlbmd0aEFkanVzdD0ic3BhY2luZyIgdGV4dExlbmd0aD0iNi41IiB4PSIxNzMuNjQ4NCIgeT0iMTgwLjEyOTgiPjE8L3RleHQ+PHRleHQgZmlsbD0iIzAwMDAwMCIgZm9udC1mYW1pbHk9InNhbnMtc2VyaWYiIGZvbnQtc2l6ZT0iMTMiIGxlbmd0aEFkanVzdD0ic3BhY2luZyIgdGV4dExlbmd0aD0iMjYiIHg9IjIxNS40ODciIHk9IjU0My4zOTY0Ij4wLi4qPC90ZXh0PjwvZz48IS0tcmV2ZXJzZSBsaW5rIEFpcnBvcnQgdG8gRmxpZ2h0LS0+PGcgY2xhc3M9ImxpbmsiIGRhdGEtZW50aXR5LTE9IkFpcnBvcnQiIGRhdGEtZW50aXR5LTI9IkZsaWdodCIgZGF0YS1zb3VyY2UtbGluZT0iNTUiIGRhdGEtdWlkPSJsbms3IiBpZD0ibGlua19BaXJwb3J0X0ZsaWdodCI+PHBhdGggY29kZUxpbmU9IjU1IiBkPSJNMjYwLjgyMTYsMTY5LjI2NTkgQzI3Ny41MzE2LDE4Ny44MTU5IDI4Ny44OCwxOTkuMzIgMzA2LjI4LDIxOS43NSIgZmlsbD0ibm9uZSIgaWQ9IkFpcnBvcnQtYmFja3RvLUZsaWdodCIgc3R5bGU9InN0cm9rZTojMTgxODE4O3N0cm9rZS13aWR0aDoxOyIvPjxwb2x5Z29uIGZpbGw9IiMxODE4MTgiIHBvaW50cz0iMjUyLjc5LDE2MC4zNSwyNTMuODMzOCwxNjcuNDg1MiwyNjAuODIxNiwxNjkuMjY1OSwyNTkuNzc3OCwxNjIuMTMwOCwyNTIuNzksMTYwLjM1IiBzdHlsZT0ic3Ryb2tlOiMxODE4MTg7c3Ryb2tlLXdpZHRoOjE7Ii8+PHRleHQgZmlsbD0iIzAwMDAwMCIgZm9udC1mYW1pbHk9InNhbnMtc2VyaWYiIGZvbnQtc2l6ZT0iMTMiIGxlbmd0aEFkanVzdD0ic3BhY2luZyIgdGV4dExlbmd0aD0iNi41IiB4PSIyNTIuNjI3MiIgeT0iMTgwLjEwOCI+MTwvdGV4dD48dGV4dCBmaWxsPSIjMDAwMDAwIiBmb250LWZhbWlseT0ic2Fucy1zZXJpZiIgZm9udC1zaXplPSIxMyIgbGVuZ3RoQWRqdXN0PSJzcGFjaW5nIiB0ZXh0TGVuZ3RoPSIyNiIgeD0iMjcyLjA0IiB5PSIyMTAuMzQ0OCI+MC4uKjwvdGV4dD48L2c+PCEtLWxpbmsgRmxpZ2h0IHRvIEFpcmxpbmUtLT48ZyBjbGFzcz0ibGluayIgZGF0YS1lbnRpdHktMT0iRmxpZ2h0IiBkYXRhLWVudGl0eS0yPSJBaXJsaW5lIiBkYXRhLXNvdXJjZS1saW5lPSI1NiIgZGF0YS11aWQ9ImxuazgiIGlkPSJsaW5rX0ZsaWdodF9BaXJsaW5lIj48cGF0aCBjb2RlTGluZT0iNTYiIGQ9Ik0zNjcuMzIsNDkzLjQgQzM1OC4xMSw1MTMuODcgMzUxLjM2NTUsNTI4Ljg2IDM0Mi45OTU1LDU0Ny40MyIgZmlsbD0ibm9uZSIgaWQ9IkZsaWdodC10by1BaXJsaW5lIiBzdHlsZT0ic3Ryb2tlOiMxODE4MTg7c3Ryb2tlLXdpZHRoOjE7Ii8+PHBvbHlnb24gZmlsbD0iIzE4MTgxOCIgcG9pbnRzPSIzNDAuNTMsNTUyLjksMzQ3Ljg3NDksNTQ2LjMzODYsMzQyLjU4NDYsNTQ4LjM0MTYsMzQwLjU4MTUsNTQzLjA1MTMsMzQwLjUzLDU1Mi45IiBzdHlsZT0ic3Ryb2tlOiMxODE4MTg7c3Ryb2tlLXdpZHRoOjE7Ii8+PHRleHQgZmlsbD0iIzAwMDAwMCIgZm9udC1mYW1pbHk9InNhbnMtc2VyaWYiIGZvbnQtc2l6ZT0iMTMiIGxlbmd0aEFkanVzdD0ic3BhY2luZyIgdGV4dExlbmd0aD0iNi41IiB4PSIzNTguMDIzNiIgeT0iNTEzLjExMjciPjE8L3RleHQ+PHRleHQgZmlsbD0iIzAwMDAwMCIgZm9udC1mYW1pbHk9InNhbnMtc2VyaWYiIGZvbnQtc2l6ZT0iMTMiIGxlbmd0aEFkanVzdD0ic3BhY2luZyIgdGV4dExlbmd0aD0iNi41IiB4PSIzMzcuOTUxMiIgeT0iNTQzLjE1NiI+MTwvdGV4dD48L2c+PCEtLWxpbmsgU2xvdFJlcXVlc3QgdG8gRmxpZ2h0LS0+PGcgY2xhc3M9ImxpbmsiIGRhdGEtZW50aXR5LTE9IlNsb3RSZXF1ZXN0IiBkYXRhLWVudGl0eS0yPSJGbGlnaHQiIGRhdGEtc291cmNlLWxpbmU9IjU3IiBkYXRhLXVpZD0ibG5rOSIgaWQ9ImxpbmtfU2xvdFJlcXVlc3RfRmxpZ2h0Ij48cGF0aCBjb2RlTGluZT0iNTciIGQ9Ik01MTYuMzUsMTYwLjM1IEM1MDgsMTc4LjkgNTA2LjIwMDksMTgyLjkwNzQgNDk3LjAwMDksMjAzLjMzNzQiIGZpbGw9Im5vbmUiIGlkPSJTbG90UmVxdWVzdC10by1GbGlnaHQiIHN0eWxlPSJzdHJva2U6IzE4MTgxODtzdHJva2Utd2lkdGg6MTsiLz48cG9seWdvbiBmaWxsPSJub25lIiBwb2ludHM9IjQ4OS42MSwyMTkuNzUsNTAyLjQ3MTgsMjA1LjgwMSw0OTEuNTMsMjAwLjg3MzcsNDg5LjYxLDIxOS43NSIgc3R5bGU9InN0cm9rZTojMTgxODE4O3N0cm9rZS13aWR0aDoxOyIvPjwvZz48IS0tU1JDPVtiTERCSlhqMTREdEZBTGY2OGV1cFd5V01IUE9pNDE4UmEzME5BRlVLSklkandLYnRaUDRYb0hLdTByVFcweVRtUmFIX0pHU2ZZcVlNdFZMeHpMdkxNSWdtTGlwOHpEZ21VQVk0UTNPZU1QamxwZ1VlbXliS0c3cFA4ZFlrUTdOQkJoT0NabjJZWmVLUGtabE9ka2dYTy1Ub2RvX0dqV2JmZDcxRUg4Ui14MUR3ZW9MUUVyVVFoXzc3VzlSNzRWSDRmMndyUTg1VHNQZHgzWUtqc0x4MURlUmR5WFJSR1U0dVg3dWRBU3h3TExLb2dfRmplWmhCWGhnTHc2MkRYS2FJekFia0NVak9BYUlVcXBxYzVMYzJCd2s1VDlicnAwYkRMeVlOQlozRW5hTDJzcGxFQ3JuOUF6OEZoMHVJX2M2VWpWU2JRZDRPYnlEd1dRUG1qelkzdVM3VzNRdEJUMzI2RGcwLVVpYjgwcWstc1ZSMWxUMVEyUkFwdGFyX1dzckk2SGRiRlRNWTJxcmh0eWxackh1eUZIOVU0NlpZc2xtNmVzQThpOE55VG1ieFBudmZqaXpBR01OTWRkWHFsaENFemU1Umxfbi03VXZralc1SWkyMTVsMnFkTlRuTUYwOV9JU0FuTDZ4bEpCaHBUZDREYmU0N2N1Um9GdVZ2S1ZaaXhuUHhfcG1xWUFPNDlHVmJlYlN6cW5mSzZnQ1pfcWRpZGRSRlZudnRCeGxOQWx6NUhyejdPajhxT2RIeVQzR1B2VGwtTHBXSWhUQWYtTTNKSkNEbEJZbmRxcEdfZndkYTNHMDBdLS0+PC9nPjwvc3ZnPg==;" vertex="1" parent="1">
            <mxGeometry x="780" y="-270" width="710" height="712" as="geometry" />
          </mxCell>
        </UserObject>
      </root>
    </mxGraphModel>
  </diagram>
</mxfile>
